<?xml version="1.0" encoding="UTF-8"?>
<!DOCTYPE svg PUBLIC "-//W3C//DTD SVG 1.1//EN" "http://www.w3.org/Graphics/SVG/1.1/DTD/svg11.dtd">
<svg xmlns="http://www.w3.org/2000/svg" version="1.1" width="607px" height="603px" style="shape-rendering:geometricPrecision; text-rendering:geometricPrecision; image-rendering:optimizeQuality; fill-rule:evenodd; clip-rule:evenodd" xmlns:xlink="http://www.w3.org/1999/xlink">
<g><path style="opacity:0.565" fill="#ab8a61" d="M 299.5,34.5 C 300.249,35.531 300.915,36.6976 301.5,38C 300.263,38.2321 299.263,38.7321 298.5,39.5C 281.006,41.2081 263.672,43.8748 246.5,47.5C 245.417,47.4606 244.417,47.1272 243.5,46.5C 242.227,47.2565 242.227,47.9232 243.5,48.5C 243.5,49.1667 243.833,49.5 244.5,49.5C 239.731,51.655 234.731,53.655 229.5,55.5C 228.391,54.71 227.058,54.21 225.5,54C 224.748,53.3292 224.414,52.4959 224.5,51.5C 233.658,47.946 242.992,45.1126 252.5,43C 268.361,39.829 284.027,36.9956 299.5,34.5 Z"/></g>
<g><path style="opacity:1" fill="#57723a" d="M 396.5,36.5 C 397.113,39.0092 397.78,41.5092 398.5,44C 398.272,44.3988 397.938,44.5654 397.5,44.5C 395.413,45.5846 394.08,47.2512 393.5,49.5C 390.077,49.124 387.744,50.4574 386.5,53.5C 380.241,53.275 374.074,53.9417 368,55.5C 365.719,55.1789 363.552,54.5122 361.5,53.5C 359.109,54.1914 359.109,55.1914 361.5,56.5C 361,56.8333 360.5,57.1667 360,57.5C 356.978,56.118 353.811,55.118 350.5,54.5C 349.52,52.392 349.854,50.392 351.5,48.5C 352.354,49.9479 353.354,51.2813 354.5,52.5C 355.5,53.8333 356.5,53.8333 357.5,52.5C 355.364,50.0509 353.697,47.3843 352.5,44.5C 350.712,44.7852 349.045,44.4519 347.5,43.5C 348.167,42.8333 348.833,42.1667 349.5,41.5C 347.672,40.2048 345.672,39.2048 343.5,38.5C 345.167,37.8333 346.833,37.1667 348.5,36.5C 345.069,34.7015 341.569,33.0349 338,31.5C 336.433,32.8561 334.6,33.5228 332.5,33.5C 332.737,32.209 332.404,31.209 331.5,30.5C 331.297,28.9557 330.63,27.6223 329.5,26.5C 330.609,24.7859 329.942,24.1192 327.5,24.5C 327.5,22.8333 327.5,21.1667 327.5,19.5C 331.377,17.1715 335.543,16.8382 340,18.5C 341.434,18.0696 342.601,17.2362 343.5,16C 349.09,16.4806 353.423,14.4806 356.5,10C 360.122,9.09774 363.455,7.59774 366.5,5.5C 367.167,5.83333 367.833,6.16667 368.5,6.5C 369.331,14.1451 369.831,21.8117 370,29.5C 373.256,27.5715 376.756,27.0715 380.5,28C 386.244,30.1826 391.578,33.0159 396.5,36.5 Z"/></g>
<g><path style="opacity:1" fill="#9d6b30" d="M 303.5,42.5 C 309.941,43.483 310.607,45.483 305.5,48.5C 291.215,49.4663 276.882,49.7996 262.5,49.5C 259.482,49.6646 256.482,49.498 253.5,49C 261.214,48.0444 268.547,46.5444 275.5,44.5C 284.781,43.1734 294.115,42.5068 303.5,42.5 Z"/></g>
<g><path style="opacity:1" fill="#868e56" d="M 305.5,48.5 C 299.926,50.4533 293.926,51.12 287.5,50.5C 287.5,51.5 287.5,52.5 287.5,53.5C 292.544,53.1725 297.544,53.5059 302.5,54.5C 302.863,55.1835 303.196,55.8501 303.5,56.5C 299.554,55.4731 295.554,55.3064 291.5,56C 289.241,57.9349 288.241,60.4349 288.5,63.5C 291.455,62.8413 294.455,62.5079 297.5,62.5C 297.432,65.085 296.932,67.4183 296,69.5C 299.076,70.2883 302.242,70.7883 305.5,71C 308.124,71.5764 308.791,72.9098 307.5,75C 303.012,73.946 298.346,73.2793 293.5,73C 291.561,72.0922 290.561,70.5922 290.5,68.5C 286.541,69.4222 284.208,67.9222 283.5,64C 284.641,61.3769 284.974,58.8769 284.5,56.5C 285.55,56.0954 285.55,55.4288 284.5,54.5C 280.119,53.23 275.785,53.23 271.5,54.5C 267.299,53.2641 262.965,53.2641 258.5,54.5C 257.081,53.5489 255.415,53.2155 253.5,53.5C 252.022,53.762 250.689,53.4287 249.5,52.5C 254.243,52.1234 258.576,51.1234 262.5,49.5C 276.882,49.7996 291.215,49.4663 305.5,48.5 Z"/></g>
<g><path style="opacity:1" fill="#dcbc8d" d="M 224.5,51.5 C 224.414,52.4959 224.748,53.3292 225.5,54C 227.058,54.21 228.391,54.71 229.5,55.5C 220.843,57.6645 212.51,60.6645 204.5,64.5C 201.755,65.6162 198.922,66.6162 196,67.5C 194.989,66.9444 194.156,66.2778 193.5,65.5C 203.395,59.9582 213.728,55.2916 224.5,51.5 Z"/></g>
<g><path style="opacity:1" fill="#c29250" d="M 275.5,44.5 C 268.547,46.5444 261.214,48.0444 253.5,49C 256.482,49.498 259.482,49.6646 262.5,49.5C 258.576,51.1234 254.243,52.1234 249.5,52.5C 250.689,53.4287 252.022,53.762 253.5,53.5C 253.5,54.1667 253.5,54.8333 253.5,55.5C 252.833,55.5 252.5,55.8333 252.5,56.5C 251.423,55.9816 250.256,55.6483 249,55.5C 244.875,56.7027 241.542,58.036 239,59.5C 237.634,59.2935 236.301,58.9602 235,58.5C 227.635,61.5442 220.135,64.0442 212.5,66C 210.681,66.7403 209.348,67.9069 208.5,69.5C 207.167,69.5 205.833,69.5 204.5,69.5C 204.5,67.8333 204.5,66.1667 204.5,64.5C 212.51,60.6645 220.843,57.6645 229.5,55.5C 234.731,53.655 239.731,51.655 244.5,49.5C 245.557,48.794 245.224,48.4607 243.5,48.5C 242.227,47.9232 242.227,47.2565 243.5,46.5C 244.417,47.1272 245.417,47.4606 246.5,47.5C 246.735,48.0967 247.235,48.4301 248,48.5C 256.985,45.9808 266.152,44.6475 275.5,44.5 Z"/></g>
<g><path style="opacity:1" fill="#506c35" d="M 330.5,74.5 C 330.586,73.5041 330.252,72.6708 329.5,72C 326.621,71.454 323.954,70.6206 321.5,69.5C 323.591,69.3184 325.591,69.6518 327.5,70.5C 328.5,70 329.5,69.5 330.5,69C 329.584,68.7216 328.918,68.2216 328.5,67.5C 328.5,67.1667 328.5,66.8333 328.5,66.5C 331.866,66.7878 335.2,66.9545 338.5,67C 339.291,64.2501 339.291,61.4168 338.5,58.5C 341.572,58.1826 344.572,58.5159 347.5,59.5C 348.453,61.4552 349.787,63.1218 351.5,64.5C 352.711,63.7261 352.711,62.8928 351.5,62C 354.807,61.6299 357.807,62.4632 360.5,64.5C 361.328,63.5853 362.328,62.9186 363.5,62.5C 367.005,63.8715 370.339,65.5381 373.5,67.5C 374.783,70.3719 374.783,73.2053 373.5,76C 368.326,78.0322 362.993,78.6988 357.5,78C 356.62,76.6439 356.286,75.1439 356.5,73.5C 353.446,73.2955 350.946,71.9622 349,69.5C 346.241,71.7762 343.241,72.4429 340,71.5C 337.35,74.0291 334.184,75.0291 330.5,74.5 Z"/></g>
<g><path style="opacity:1" fill="#c9ab80" d="M 253.5,53.5 C 255.415,53.2155 257.081,53.5489 258.5,54.5C 261.426,54.994 265.76,54.994 271.5,54.5C 275.785,53.23 280.119,53.23 284.5,54.5C 285.55,55.4288 285.55,56.0954 284.5,56.5C 268.734,58.0477 253.067,60.2144 237.5,63C 230.842,65.2752 224.175,67.4418 217.5,69.5C 216.22,68.0687 214.553,67.4021 212.5,67.5C 212.719,68.675 212.386,69.675 211.5,70.5C 210.583,69.8728 209.583,69.5394 208.5,69.5C 209.348,67.9069 210.681,66.7403 212.5,66C 220.135,64.0442 227.635,61.5442 235,58.5C 236.301,58.9602 237.634,59.2935 239,59.5C 241.542,58.036 244.875,56.7027 249,55.5C 250.256,55.6483 251.423,55.9816 252.5,56.5C 255.517,56.4437 255.85,56.1103 253.5,55.5C 253.5,54.8333 253.5,54.1667 253.5,53.5 Z M 271.5,54.5 C 265.76,54.994 261.426,54.994 258.5,54.5C 262.965,53.2641 267.299,53.2641 271.5,54.5 Z"/></g>
<g><path style="opacity:1" fill="#81a350" d="M 462.5,69.5 C 461.504,69.5858 460.671,69.2524 460,68.5C 456.765,69.5863 453.932,71.253 451.5,73.5C 451.38,72.4138 450.713,71.7472 449.5,71.5C 447.01,72.7716 444.676,74.2716 442.5,76C 440.32,76.4188 438.154,76.2521 436,75.5C 434.105,75.6148 432.438,76.2815 431,77.5C 430.586,77.0426 430.086,76.7093 429.5,76.5C 429.757,80.0388 429.424,83.7055 428.5,87.5C 429.114,91.1352 429.448,94.8019 429.5,98.5C 427.076,98.8076 424.743,98.4742 422.5,97.5C 421.272,95.679 419.606,94.679 417.5,94.5C 417.48,92.857 418.147,91.5237 419.5,90.5C 416.605,88.593 415.272,85.9264 415.5,82.5C 412.142,81.7153 408.809,80.7153 405.5,79.5C 408.03,76.5477 409.697,73.2144 410.5,69.5C 411.5,69.5 412.5,69.5 413.5,69.5C 413.976,67.0069 415.31,65.0069 417.5,63.5C 416.134,61.6777 414.3,60.6777 412,60.5C 408.605,61.8047 405.105,62.4714 401.5,62.5C 401.551,64.5695 400.885,66.4029 399.5,68C 399.833,68.5 400.167,69 400.5,69.5C 401.768,68.5721 403.101,68.4054 404.5,69C 401.999,70.6123 399.665,72.4457 397.5,74.5C 398.025,75.1924 398.692,75.6924 399.5,76C 397.167,76.6667 394.833,76.6667 392.5,76C 394.518,74.1427 396.185,71.976 397.5,69.5C 397.167,68.8333 396.833,68.1667 396.5,67.5C 394.482,69.3501 392.649,71.3501 391,73.5C 390.505,71.5273 390.338,69.5273 390.5,67.5C 385.167,67.1667 385.167,66.8333 390.5,66.5C 390.372,62.1186 390.705,57.7853 391.5,53.5C 390.5,53.5 389.5,53.5 388.5,53.5C 388.725,55.7159 387.892,57.3826 386,58.5C 385.616,56.8034 385.782,55.1368 386.5,53.5C 387.744,50.4574 390.077,49.124 393.5,49.5C 395.311,50.822 397.311,51.322 399.5,51C 397.771,49.2111 397.104,47.0444 397.5,44.5C 397.938,44.5654 398.272,44.3988 398.5,44C 397.78,41.5092 397.113,39.0092 396.5,36.5C 397.451,35.0813 397.784,33.4147 397.5,31.5C 401.774,31.2573 405.441,32.5906 408.5,35.5C 410.167,34.1667 411.833,32.8333 413.5,31.5C 416.103,32.5617 418.77,32.7284 421.5,32C 426.34,28.5704 431.674,26.9037 437.5,27C 438.574,27.7387 439.241,28.7387 439.5,30C 437.091,36.3148 435.425,42.8148 434.5,49.5C 437.518,49.3354 440.518,49.502 443.5,50C 446.873,52.6775 450.206,55.3442 453.5,58C 458.514,60.1655 461.514,63.9988 462.5,69.5 Z M 394.5,53.5 C 398.985,53.717 402.985,55.217 406.5,58C 402.952,57.2404 399.285,56.5738 395.5,56C 394.748,55.3292 394.414,54.4959 394.5,53.5 Z"/></g>
<g><path style="opacity:0.34" fill="#afb66c" d="M 451.5,73.5 C 449.626,74.6299 447.626,75.6299 445.5,76.5C 445.167,77.1667 444.833,77.8333 444.5,78.5C 446.509,82.0304 446.842,85.6971 445.5,89.5C 442.652,87.5757 439.652,85.909 436.5,84.5C 435.212,82.7015 435.212,81.0348 436.5,79.5C 438.677,79.5861 440.677,80.2528 442.5,81.5C 442.833,81.1667 443.167,80.8333 443.5,80.5C 441.258,79.3076 438.925,78.3076 436.5,77.5C 435.893,77.6236 435.56,77.9569 435.5,78.5C 434.167,78.5 432.833,78.5 431.5,78.5C 431.5,82.1667 431.5,85.8333 431.5,89.5C 430.778,88.4489 429.778,87.7822 428.5,87.5C 429.424,83.7055 429.757,80.0388 429.5,76.5C 430.086,76.7093 430.586,77.0426 431,77.5C 432.438,76.2815 434.105,75.6148 436,75.5C 438.154,76.2521 440.32,76.4188 442.5,76C 444.676,74.2716 447.01,72.7716 449.5,71.5C 450.713,71.7472 451.38,72.4138 451.5,73.5 Z M 435.5,78.5 C 435.56,77.9569 435.893,77.6236 436.5,77.5C 438.925,78.3076 441.258,79.3076 443.5,80.5C 443.167,80.8333 442.833,81.1667 442.5,81.5C 440.677,80.2528 438.677,79.5861 436.5,79.5C 436.5,78.8333 436.167,78.5 435.5,78.5 Z"/></g>
<g><path style="opacity:0.996" fill="#e7bb75" d="M 204.5,64.5 C 204.5,66.1667 204.5,67.8333 204.5,69.5C 205.833,69.5 207.167,69.5 208.5,69.5C 209.583,69.5394 210.583,69.8728 211.5,70.5C 212.386,69.675 212.719,68.675 212.5,67.5C 214.553,67.4021 216.22,68.0687 217.5,69.5C 205.982,73.2892 194.648,77.7892 183.5,83C 170.23,90.4536 157.563,98.6203 145.5,107.5C 143.473,108.937 141.306,110.27 139,111.5C 138.833,111.167 138.667,110.833 138.5,110.5C 138.972,106.736 140.305,103.402 142.5,100.5C 157.657,86.119 174.657,74.4524 193.5,65.5C 194.156,66.2778 194.989,66.9444 196,67.5C 198.922,66.6162 201.755,65.6162 204.5,64.5 Z"/></g>
<g><path style="opacity:1" fill="#6c8a45" d="M 327.5,19.5 C 327.5,21.1667 327.5,22.8333 327.5,24.5C 329.942,24.1192 330.609,24.7859 329.5,26.5C 330.63,27.6223 331.297,28.9557 331.5,30.5C 331.263,31.791 331.596,32.791 332.5,33.5C 334.6,33.5228 336.433,32.8561 338,31.5C 341.569,33.0349 345.069,34.7015 348.5,36.5C 346.833,37.1667 345.167,37.8333 343.5,38.5C 345.672,39.2048 347.672,40.2048 349.5,41.5C 348.833,42.1667 348.167,42.8333 347.5,43.5C 349.045,44.4519 350.712,44.7852 352.5,44.5C 353.697,47.3843 355.364,50.0509 357.5,52.5C 356.5,53.8333 355.5,53.8333 354.5,52.5C 353.354,51.2813 352.354,49.9479 351.5,48.5C 349.854,50.392 349.52,52.392 350.5,54.5C 353.811,55.118 356.978,56.118 360,57.5C 360.5,57.1667 361,56.8333 361.5,56.5C 359.109,55.1914 359.109,54.1914 361.5,53.5C 363.552,54.5122 365.719,55.1789 368,55.5C 374.074,53.9417 380.241,53.275 386.5,53.5C 385.782,55.1368 385.616,56.8034 386,58.5C 387.892,57.3826 388.725,55.7159 388.5,53.5C 389.5,53.5 390.5,53.5 391.5,53.5C 390.705,57.7853 390.372,62.1186 390.5,66.5C 385.167,66.8333 385.167,67.1667 390.5,67.5C 390.338,69.5273 390.505,71.5273 391,73.5C 392.649,71.3501 394.482,69.3501 396.5,67.5C 396.833,68.1667 397.167,68.8333 397.5,69.5C 396.185,71.976 394.518,74.1427 392.5,76C 394.833,76.6667 397.167,76.6667 399.5,76C 398.692,75.6924 398.025,75.1924 397.5,74.5C 399.665,72.4457 401.999,70.6123 404.5,69C 403.101,68.4054 401.768,68.5721 400.5,69.5C 400.167,69 399.833,68.5 399.5,68C 400.885,66.4029 401.551,64.5695 401.5,62.5C 405.105,62.4714 408.605,61.8047 412,60.5C 414.3,60.6777 416.134,61.6777 417.5,63.5C 415.31,65.0069 413.976,67.0069 413.5,69.5C 412.5,69.5 411.5,69.5 410.5,69.5C 409.697,73.2144 408.03,76.5477 405.5,79.5C 408.809,80.7153 412.142,81.7153 415.5,82.5C 415.272,85.9264 416.605,88.593 419.5,90.5C 418.147,91.5237 417.48,92.857 417.5,94.5C 419.606,94.679 421.272,95.679 422.5,97.5C 424.743,98.4742 427.076,98.8076 429.5,98.5C 429.448,94.8019 429.114,91.1352 428.5,87.5C 429.778,87.7822 430.778,88.4489 431.5,89.5C 430.551,92.872 430.551,96.2053 431.5,99.5C 423.324,100.205 415.157,101.205 407,102.5C 404.542,101.639 402.376,100.306 400.5,98.5C 399.702,98.9569 399.369,99.6236 399.5,100.5C 398.542,100.047 397.708,99.3805 397,98.5C 395.166,102.841 392.833,106.841 390,110.5C 387.667,111.833 385.333,111.833 383,110.5C 380.56,107.078 378.56,103.411 377,99.5C 369.986,101.33 362.819,101.496 355.5,100C 353.277,99.3483 352.11,97.8483 352,95.5C 350.171,97.1558 348.837,99.1558 348,101.5C 346.486,105.714 345.153,110.047 344,114.5C 341.408,115.982 339.075,115.648 337,113.5C 334.602,109.943 332.435,106.277 330.5,102.5C 328.391,101.35 326.391,100.016 324.5,98.5C 323.548,96.9547 323.215,95.288 323.5,93.5C 320.482,93.6646 317.482,93.498 314.5,93C 313.446,91.6124 313.28,90.1124 314,88.5C 316.448,84.3851 319.281,80.5518 322.5,77C 325.096,75.8644 327.763,75.031 330.5,74.5C 334.184,75.0291 337.35,74.0291 340,71.5C 343.241,72.4429 346.241,71.7762 349,69.5C 350.946,71.9622 353.446,73.2955 356.5,73.5C 356.286,75.1439 356.62,76.6439 357.5,78C 362.993,78.6988 368.326,78.0322 373.5,76C 374.783,73.2053 374.783,70.3719 373.5,67.5C 370.339,65.5381 367.005,63.8715 363.5,62.5C 362.328,62.9186 361.328,63.5853 360.5,64.5C 357.807,62.4632 354.807,61.6299 351.5,62C 352.711,62.8928 352.711,63.7261 351.5,64.5C 349.787,63.1218 348.453,61.4552 347.5,59.5C 344.572,58.5159 341.572,58.1826 338.5,58.5C 339.291,61.4168 339.291,64.2501 338.5,67C 335.2,66.9545 331.866,66.7878 328.5,66.5C 327.534,63.8753 326.534,63.8753 325.5,66.5C 326.325,67.3857 327.325,67.719 328.5,67.5C 328.918,68.2216 329.584,68.7216 330.5,69C 329.5,69.5 328.5,70 327.5,70.5C 325.591,69.6518 323.591,69.3184 321.5,69.5C 318.734,68.3809 316.068,67.8809 313.5,68C 309.987,64.3202 306.653,60.4868 303.5,56.5C 303.196,55.8501 302.863,55.1835 302.5,54.5C 297.544,53.5059 292.544,53.1725 287.5,53.5C 287.5,52.5 287.5,51.5 287.5,50.5C 293.926,51.12 299.926,50.4533 305.5,48.5C 310.607,45.483 309.941,43.483 303.5,42.5C 302.7,40.2591 301.034,39.2591 298.5,39.5C 299.263,38.7321 300.263,38.2321 301.5,38C 300.915,36.6976 300.249,35.531 299.5,34.5C 299.863,32.1947 301.029,30.528 303,29.5C 306.035,31.0417 309.202,31.5417 312.5,31C 315.45,24.8816 320.117,20.715 326.5,18.5C 327.107,18.6236 327.44,18.9569 327.5,19.5 Z M 375.5,71.5 C 377.09,71.6282 378.423,72.2949 379.5,73.5C 377.167,74.9415 375.834,74.2748 375.5,71.5 Z M 328.5,66.5 C 328.5,66.8333 328.5,67.1667 328.5,67.5C 327.325,67.719 326.325,67.3857 325.5,66.5C 326.534,63.8753 327.534,63.8753 328.5,66.5 Z"/></g>
<g><path style="opacity:1" fill="#be9959" d="M 377.5,57.5 C 379.833,57.5 382.167,57.5 384.5,57.5C 384.767,59.9711 383.767,61.6378 381.5,62.5C 379.216,61.3866 376.883,60.3866 374.5,59.5C 375.602,58.8243 376.602,58.1577 377.5,57.5 Z"/></g>
<g><path style="opacity:1" fill="#729947" d="M 520.5,96.5 C 526.73,96.2909 532.73,97.2909 538.5,99.5C 538.128,103.043 536.128,105.21 532.5,106C 529.331,106.978 526.497,106.478 524,104.5C 523.601,104.728 523.435,105.062 523.5,105.5C 522.347,104.687 522.347,103.687 523.5,102.5C 522.675,101.614 521.675,101.281 520.5,101.5C 520.64,99.8762 519.973,98.7096 518.5,98C 519.416,97.7216 520.082,97.2216 520.5,96.5 Z"/></g>
<g><path style="opacity:1" fill="#57723a" d="M 520.5,96.5 C 520.082,97.2216 519.416,97.7216 518.5,98C 519.973,98.7096 520.64,99.8762 520.5,101.5C 521.675,101.281 522.675,101.614 523.5,102.5C 522.347,103.687 522.347,104.687 523.5,105.5C 520.732,109.339 521.566,112.339 526,114.5C 526.902,114.257 527.735,113.923 528.5,113.5C 530.452,115.452 532.452,117.452 534.5,119.5C 530.632,122.214 527.965,125.88 526.5,130.5C 524.993,132.69 522.993,134.024 520.5,134.5C 520.5,131.5 520.5,128.5 520.5,125.5C 522.167,125.5 523.833,125.5 525.5,125.5C 526.28,122.899 527.946,120.899 530.5,119.5C 530,119.167 529.5,118.833 529,118.5C 525.367,120.068 521.867,121.735 518.5,123.5C 518.336,120.252 517.336,117.252 515.5,114.5C 515.302,118.203 515.302,121.87 515.5,125.5C 514.476,124.147 513.143,123.48 511.5,123.5C 511.62,121.801 511.954,120.135 512.5,118.5C 511.278,116.104 510.278,113.604 509.5,111C 509.396,108.855 510.063,107.021 511.5,105.5C 520.851,115.429 522.185,114.762 515.5,103.5C 513.591,102.652 511.591,102.318 509.5,102.5C 507.473,107.337 505.473,112.004 503.5,116.5C 500.245,116.986 497.578,115.986 495.5,113.5C 494.614,114.325 494.281,115.325 494.5,116.5C 492.273,114.771 491.273,112.438 491.5,109.5C 489.396,109.799 487.396,109.466 485.5,108.5C 485.013,107.554 484.68,106.554 484.5,105.5C 487.092,102.226 489.759,98.8931 492.5,95.5C 493.429,94.3112 493.762,92.9778 493.5,91.5C 491.738,91.3573 490.071,91.6906 488.5,92.5C 487.614,91.675 487.281,90.675 487.5,89.5C 479.461,90.1434 472.794,87.4768 467.5,81.5C 465.253,82.3742 462.92,82.7076 460.5,82.5C 460.785,84.288 460.452,85.9547 459.5,87.5C 458.914,87.2907 458.414,86.9574 458,86.5C 457.768,87.7375 457.268,88.7375 456.5,89.5C 456.66,87.8008 456.494,86.1341 456,84.5C 455.79,86.0581 455.29,87.3915 454.5,88.5C 454.649,87.448 454.483,86.448 454,85.5C 453.686,87.8689 452.852,90.0356 451.5,92C 452.672,93.8387 454.172,95.3387 456,96.5C 456.424,98.5155 457.258,100.349 458.5,102C 458.333,102.5 458.167,103 458,103.5C 457.167,102.667 456.333,101.833 455.5,101C 452.979,100.2 451.312,100.367 450.5,101.5C 450.082,102.222 449.416,102.722 448.5,103C 449.684,104.145 449.684,105.312 448.5,106.5C 448.167,106.5 447.833,106.5 447.5,106.5C 444.905,104.226 442.238,104.393 439.5,107C 440.373,108.045 441.373,108.878 442.5,109.5C 442.183,113.702 442.517,117.702 443.5,121.5C 443.663,123.857 443.497,126.19 443,128.5C 442.311,129.357 441.478,130.023 440.5,130.5C 435.422,128.636 430.422,126.47 425.5,124C 425.012,121.824 424.012,119.991 422.5,118.5C 419.65,120.427 416.983,122.594 414.5,125C 411.854,125.497 409.187,125.664 406.5,125.5C 406.83,118.468 406.497,111.468 405.5,104.5C 403.21,103.533 401.21,102.2 399.5,100.5C 399.369,99.6236 399.702,98.9569 400.5,98.5C 402.376,100.306 404.542,101.639 407,102.5C 415.157,101.205 423.324,100.205 431.5,99.5C 430.551,96.2053 430.551,92.872 431.5,89.5C 431.5,85.8333 431.5,82.1667 431.5,78.5C 432.833,78.5 434.167,78.5 435.5,78.5C 436.167,78.5 436.5,78.8333 436.5,79.5C 435.212,81.0348 435.212,82.7015 436.5,84.5C 439.652,85.909 442.652,87.5757 445.5,89.5C 446.842,85.6971 446.509,82.0304 444.5,78.5C 444.833,77.8333 445.167,77.1667 445.5,76.5C 447.626,75.6299 449.626,74.6299 451.5,73.5C 453.932,71.253 456.765,69.5863 460,68.5C 460.671,69.2524 461.504,69.5858 462.5,69.5C 465.214,72.608 466.548,76.2746 466.5,80.5C 470.23,81.0558 473.397,82.7225 476,85.5C 475.28,82.0072 474.114,78.5072 472.5,75C 473.918,71.9992 474.751,68.8325 475,65.5C 475.641,63.1868 476.974,61.5202 479,60.5C 481.321,61.8217 483.488,63.3217 485.5,65C 489.438,64.6563 493.271,65.4896 497,67.5C 502.363,65.2144 507.863,64.8811 513.5,66.5C 513.785,68.288 513.452,69.9547 512.5,71.5C 509.43,75.8142 506.763,80.3142 504.5,85C 504.68,87.2414 505.513,87.7414 507,86.5C 508.399,87.2266 509.899,87.7266 511.5,88C 513.589,90.8785 515.923,93.5452 518.5,96C 519.094,96.4643 519.761,96.631 520.5,96.5 Z M 456.5,89.5 C 455.377,90.7574 454.711,90.4241 454.5,88.5C 455.29,87.3915 455.79,86.0581 456,84.5C 456.494,86.1341 456.66,87.8008 456.5,89.5 Z M 450.5,101.5 C 452.134,102.207 453.468,103.373 454.5,105C 452.482,105.505 450.482,106.005 448.5,106.5C 449.684,105.312 449.684,104.145 448.5,103C 449.416,102.722 450.082,102.222 450.5,101.5 Z M 447.5,106.5 C 445.58,107.065 443.913,108.065 442.5,109.5C 441.373,108.878 440.373,108.045 439.5,107C 442.238,104.393 444.905,104.226 447.5,106.5 Z M 503.5,116.5 C 503.229,118.38 503.896,119.713 505.5,120.5C 505.784,122.415 505.451,124.081 504.5,125.5C 505.502,127.011 506.169,128.678 506.5,130.5C 503.951,130.613 501.618,129.946 499.5,128.5C 498.072,125.384 496.738,122.217 495.5,119C 497.098,117.274 496.765,116.441 494.5,116.5C 494.281,115.325 494.614,114.325 495.5,113.5C 497.578,115.986 500.245,116.986 503.5,116.5 Z"/></g>
<g><path style="opacity:1" fill="#8aaa58" d="M 494.5,116.5 C 495.149,121.284 496.482,125.784 498.5,130C 496.134,130.562 493.801,130.396 491.5,129.5C 489.347,129.561 488.014,130.561 487.5,132.5C 485.648,131.911 483.815,131.244 482,130.5C 481.005,131.066 480.172,131.733 479.5,132.5C 477.451,132.294 477.117,131.461 478.5,130C 476.269,129.378 474.435,128.211 473,126.5C 471.613,130.275 469.946,133.942 468,137.5C 465.952,141.408 463.119,142.241 459.5,140C 455.311,134.79 452.311,128.956 450.5,122.5C 448.253,121.626 445.92,121.292 443.5,121.5C 442.517,117.702 442.183,113.702 442.5,109.5C 443.913,108.065 445.58,107.065 447.5,106.5C 447.833,106.5 448.167,106.5 448.5,106.5C 450.482,106.005 452.482,105.505 454.5,105C 453.468,103.373 452.134,102.207 450.5,101.5C 451.312,100.367 452.979,100.2 455.5,101C 456.333,101.833 457.167,102.667 458,103.5C 458.167,103 458.333,102.5 458.5,102C 457.258,100.349 456.424,98.5155 456,96.5C 454.172,95.3387 452.672,93.8387 451.5,92C 452.852,90.0356 453.686,87.8689 454,85.5C 454.483,86.448 454.649,87.448 454.5,88.5C 454.711,90.4241 455.377,90.7574 456.5,89.5C 457.268,88.7375 457.768,87.7375 458,86.5C 458.414,86.9574 458.914,87.2907 459.5,87.5C 460.452,85.9547 460.785,84.288 460.5,82.5C 462.92,82.7076 465.253,82.3742 467.5,81.5C 472.794,87.4768 479.461,90.1434 487.5,89.5C 487.281,90.675 487.614,91.675 488.5,92.5C 490.071,91.6906 491.738,91.3573 493.5,91.5C 493.762,92.9778 493.429,94.3112 492.5,95.5C 489.759,98.8931 487.092,102.226 484.5,105.5C 484.68,106.554 485.013,107.554 485.5,108.5C 487.396,109.466 489.396,109.799 491.5,109.5C 491.273,112.438 492.273,114.771 494.5,116.5 Z"/></g>
<g><path style="opacity:0.012" fill="#689752" d="M 500.5,121.5 C 497.924,121.278 497.09,119.945 498,117.5C 499.085,118.736 499.918,120.069 500.5,121.5 Z"/></g>
<g><path style="opacity:0.997" fill="#85965b" d="M 494.5,116.5 C 496.765,116.441 497.098,117.274 495.5,119C 496.738,122.217 498.072,125.384 499.5,128.5C 501.618,129.946 503.951,130.613 506.5,130.5C 506.169,128.678 505.502,127.011 504.5,125.5C 505.451,124.081 505.784,122.415 505.5,120.5C 507.316,127.204 511.316,132.538 517.5,136.5C 518.325,132.878 518.825,129.211 519,125.5C 518.906,129.633 519.74,133.299 521.5,136.5C 521.25,137.922 520.417,138.922 519,139.5C 517.644,138.62 516.144,138.286 514.5,138.5C 514.316,136.075 513.649,136.075 512.5,138.5C 511.817,138.137 511.15,137.804 510.5,137.5C 508.419,134.682 505.752,134.015 502.5,135.5C 503.005,136.919 504.005,137.585 505.5,137.5C 502.214,138.617 499.214,140.283 496.5,142.5C 495.508,142.328 494.842,142.662 494.5,143.5C 495.234,147.44 493.901,148.773 490.5,147.5C 487.253,143.912 483.92,140.245 480.5,136.5C 479.754,135.264 479.421,133.93 479.5,132.5C 483.099,134.93 486.266,137.93 489,141.5C 490.942,138.141 490.442,135.141 487.5,132.5C 488.014,130.561 489.347,129.561 491.5,129.5C 493.801,130.396 496.134,130.562 498.5,130C 496.482,125.784 495.149,121.284 494.5,116.5 Z M 510.5,137.5 C 508.833,137.5 507.167,137.5 505.5,137.5C 504.005,137.585 503.005,136.919 502.5,135.5C 505.752,134.015 508.419,134.682 510.5,137.5 Z"/></g>
<g><path style="opacity:0.047" fill="#65a343" d="M 502.5,123.5 C 503.833,123.5 504.5,124.167 504.5,125.5C 504.5,124.167 503.833,123.5 502.5,123.5 Z"/></g>
<g><path style="opacity:0.02" fill="#636859" d="M 500.5,121.5 C 501.833,121.5 502.5,122.167 502.5,123.5C 502.5,122.167 501.833,121.5 500.5,121.5 Z"/></g>
<g><path style="opacity:1" fill="#f0d399" d="M 142.5,100.5 C 140.305,103.402 138.972,106.736 138.5,110.5C 138.667,110.833 138.833,111.167 139,111.5C 141.306,110.27 143.473,108.937 145.5,107.5C 136.908,116.758 127.908,125.758 118.5,134.5C 110.4,145.713 102.066,156.713 93.5,167.5C 93.39,165.646 93.0566,163.646 92.5,161.5C 91.1667,162.833 89.8333,164.167 88.5,165.5C 87.7025,165.043 87.3691,164.376 87.5,163.5C 102.509,139.809 120.842,118.809 142.5,100.5 Z"/></g>
<g><path style="opacity:1" fill="#5e7b3c" d="M 543.5,165.5 C 543.5,166.167 543.167,166.5 542.5,166.5C 540.071,165.735 538.738,164.069 538.5,161.5C 535.167,160.167 531.833,158.833 528.5,157.5C 528.657,158.873 528.49,160.207 528,161.5C 527.692,160.692 527.192,160.025 526.5,159.5C 524.512,166.119 522.845,172.786 521.5,179.5C 519.833,179.5 518.167,179.5 516.5,179.5C 515.201,175.63 514.534,171.63 514.5,167.5C 513.5,167.5 512.5,167.5 511.5,167.5C 513.402,160.753 512.402,160.087 508.5,165.5C 507.833,165.167 507.167,164.833 506.5,164.5C 506.432,157.663 503.099,153.663 496.5,152.5C 496.262,148.548 497.596,145.215 500.5,142.5C 505.293,141.13 509.96,139.797 514.5,138.5C 516.144,138.286 517.644,138.62 519,139.5C 520.417,138.922 521.25,137.922 521.5,136.5C 526.753,135.29 532.087,134.29 537.5,133.5C 539.167,131.833 538.833,130.833 536.5,130.5C 534.348,132.069 532.014,132.569 529.5,132C 531.283,130.261 532.95,128.428 534.5,126.5C 536.396,125.534 538.396,125.201 540.5,125.5C 540.5,126.833 540.5,128.167 540.5,129.5C 544.339,130.05 544.339,131.05 540.5,132.5C 539.369,134.074 539.202,135.741 540,137.5C 543.752,140.076 547.919,141.409 552.5,141.5C 552.5,144.167 552.5,146.833 552.5,149.5C 553.822,149.33 554.989,149.663 556,150.5C 557.45,152.757 558.617,155.09 559.5,157.5C 556.774,157.736 554.441,156.903 552.5,155C 553.624,154.751 554.624,154.251 555.5,153.5C 554.052,152.646 552.719,151.646 551.5,150.5C 550.5,151.5 549.5,152.5 548.5,153.5C 550.223,155.868 550.89,158.534 550.5,161.5C 548.167,161.5 545.833,161.5 543.5,161.5C 543.5,162.833 543.5,164.167 543.5,165.5 Z"/></g>
<g><path style="opacity:1" fill="#668641" d="M 528.5,113.5 C 537.057,109.982 545.557,109.982 554,113.5C 554.667,115.5 554.667,117.5 554,119.5C 552.883,120.949 552.216,122.616 552,124.5C 549.648,129.312 546.815,133.646 543.5,137.5C 549.023,137.178 553.523,139.178 557,143.5C 559.551,149.663 562.384,155.663 565.5,161.5C 565.291,162.086 564.957,162.586 564.5,163C 559.233,164.381 554.066,165.881 549,167.5C 547.061,167.046 545.228,166.379 543.5,165.5C 543.5,164.167 543.5,162.833 543.5,161.5C 545.833,161.5 548.167,161.5 550.5,161.5C 550.89,158.534 550.223,155.868 548.5,153.5C 549.5,152.5 550.5,151.5 551.5,150.5C 552.719,151.646 554.052,152.646 555.5,153.5C 554.624,154.251 553.624,154.751 552.5,155C 554.441,156.903 556.774,157.736 559.5,157.5C 558.617,155.09 557.45,152.757 556,150.5C 554.989,149.663 553.822,149.33 552.5,149.5C 552.5,146.833 552.5,144.167 552.5,141.5C 547.919,141.409 543.752,140.076 540,137.5C 539.202,135.741 539.369,134.074 540.5,132.5C 544.339,131.05 544.339,130.05 540.5,129.5C 540.5,128.167 540.5,126.833 540.5,125.5C 538.396,125.201 536.396,125.534 534.5,126.5C 532.95,128.428 531.283,130.261 529.5,132C 532.014,132.569 534.348,132.069 536.5,130.5C 538.833,130.833 539.167,131.833 537.5,133.5C 532.087,134.29 526.753,135.29 521.5,136.5C 519.74,133.299 518.906,129.633 519,125.5C 518.825,129.211 518.325,132.878 517.5,136.5C 511.316,132.538 507.316,127.204 505.5,120.5C 503.896,119.713 503.229,118.38 503.5,116.5C 505.473,112.004 507.473,107.337 509.5,102.5C 511.591,102.318 513.591,102.652 515.5,103.5C 522.185,114.762 520.851,115.429 511.5,105.5C 510.063,107.021 509.396,108.855 509.5,111C 510.278,113.604 511.278,116.104 512.5,118.5C 511.954,120.135 511.62,121.801 511.5,123.5C 513.143,123.48 514.476,124.147 515.5,125.5C 515.302,121.87 515.302,118.203 515.5,114.5C 517.336,117.252 518.336,120.252 518.5,123.5C 521.867,121.735 525.367,120.068 529,118.5C 529.5,118.833 530,119.167 530.5,119.5C 527.946,120.899 526.28,122.899 525.5,125.5C 523.833,125.5 522.167,125.5 520.5,125.5C 520.5,128.5 520.5,131.5 520.5,134.5C 522.993,134.024 524.993,132.69 526.5,130.5C 527.965,125.88 530.632,122.214 534.5,119.5C 532.452,117.452 530.452,115.452 528.5,113.5 Z"/></g>
<g><path style="opacity:0.982" fill="#8aa35f" d="M 354.5,176.5 C 356.167,176.5 357.833,176.5 359.5,176.5C 359.649,177.552 359.483,178.552 359,179.5C 354.333,183.5 349.667,187.5 345,191.5C 328.576,210.936 313.243,231.269 299,252.5C 293.246,262.339 287.746,272.339 282.5,282.5C 282.667,282.833 282.833,283.167 283,283.5C 286.372,282.231 289.539,280.564 292.5,278.5C 294.384,279.693 294.884,281.359 294,283.5C 290.043,286.565 285.543,288.398 280.5,289C 273.268,299.864 268.601,311.864 266.5,325C 266.894,330.063 269.561,332.063 274.5,331C 280.354,326.235 286.021,321.235 291.5,316C 296.833,312.667 302.167,309.333 307.5,306C 317.763,300.018 328.763,298.018 340.5,300C 347.697,302.693 351.031,307.86 350.5,315.5C 349.651,323.877 347.484,331.877 344,339.5C 341.548,345.083 337.714,349.416 332.5,352.5C 332.167,351.833 331.833,351.167 331.5,350.5C 334.137,343.893 337.304,337.56 341,331.5C 344.994,321.988 343.494,313.488 336.5,306C 331.649,304.713 326.649,304.713 321.5,306C 307.161,313.043 294.994,322.543 285,334.5C 269.765,354.987 260.598,377.987 257.5,403.5C 257.575,410.814 260.242,416.981 265.5,422C 269.652,422.926 273.819,423.76 278,424.5C 281.75,423.292 285.584,422.458 289.5,422C 307.74,413.232 323.74,401.565 337.5,387C 338.5,386.667 339.5,386.333 340.5,386C 344.856,380.646 349.523,375.646 354.5,371C 356.167,370 357.833,369 359.5,368C 362.436,363.61 365.936,359.777 370,356.5C 370.432,355.4 369.932,354.733 368.5,354.5C 362.943,356.293 357.277,356.793 351.5,356C 350.941,355.275 350.608,354.442 350.5,353.5C 351.265,347.946 354.431,345.612 360,346.5C 364.712,346.841 369.379,347.508 374,348.5C 375.627,348.375 377.127,347.875 378.5,347C 384.366,341.469 389.866,335.635 395,329.5C 410.787,310.379 427.287,291.879 444.5,274C 447.014,272.748 449.68,272.248 452.5,272.5C 452.586,280.155 451.086,287.488 448,294.5C 443.999,298.005 440.499,302.005 437.5,306.5C 430.939,320.454 424.272,334.287 417.5,348C 425.521,348.168 433.521,348.668 441.5,349.5C 440.91,350.799 439.91,351.632 438.5,352C 430.845,353.387 423.178,354.554 415.5,355.5C 409.957,365.408 405.457,375.741 402,386.5C 398.966,393.911 397.966,401.578 399,409.5C 402.631,413.535 405.797,413.035 408.5,408C 409.793,407.51 411.127,407.343 412.5,407.5C 412.657,408.873 412.49,410.207 412,411.5C 405.888,417.755 398.888,419.089 391,415.5C 388.083,407.331 387.75,398.997 390,390.5C 392.99,378.192 397.157,366.359 402.5,355C 395.833,354.333 389.167,354.333 382.5,355C 369.491,368.043 356.491,381.043 343.5,394C 331.737,403.722 319.403,412.722 306.5,421C 299.183,424.775 291.516,427.775 283.5,430C 258.677,432.837 246.01,421.837 245.5,397C 247.261,374.486 255.594,354.819 270.5,338C 263.558,338.207 259.058,335.04 257,328.5C 256.333,323.5 256.333,318.5 257,313.5C 259.308,306.242 261.808,299.075 264.5,292C 249.827,291.662 235.161,291.162 220.5,290.5C 217.5,290.833 214.5,291.167 211.5,291.5C 203.278,305.352 196.111,319.685 190,334.5C 182.926,338.531 180.259,336.531 182,328.5C 188.184,315.467 194.351,302.467 200.5,289.5C 190.987,289.063 182.32,291.396 174.5,296.5C 173.289,298.422 171.956,300.255 170.5,302C 169.552,302.483 168.552,302.649 167.5,302.5C 170.609,291.893 177.609,285.059 188.5,282C 194.872,281.43 201.205,280.596 207.5,279.5C 218.634,261.197 229.134,242.531 239,223.5C 243.888,213.95 245.222,203.95 243,193.5C 242.167,191.333 240.667,189.833 238.5,189C 222.47,185.754 207.137,187.754 192.5,195C 168.491,209.03 152.658,229.53 145,256.5C 144.139,262.585 144.473,268.585 146,274.5C 152.187,282.662 160.021,284.496 169.5,280C 178.181,273.836 184.348,265.669 188,255.5C 190.395,248.761 189.561,242.428 185.5,236.5C 186.348,234.717 187.681,234.217 189.5,235C 193.775,246.336 193.275,257.502 188,268.5C 183.167,276 177,282.167 169.5,287C 160.879,289.564 152.546,288.897 144.5,285C 139.74,281.206 136.573,276.372 135,270.5C 134.333,262.833 134.333,255.167 135,247.5C 137.63,237.905 141.63,228.905 147,220.5C 162.959,199.928 183.793,187.095 209.5,182C 224.32,178.258 237.987,180.592 250.5,189C 254.172,193.684 255.838,199.017 255.5,205C 255.174,211.315 254.008,217.481 252,223.5C 240.496,242.509 228.996,261.509 217.5,280.5C 234.069,283.294 250.736,284.794 267.5,285C 275.551,271.695 283.385,258.195 291,244.5C 297.085,236.756 302.751,228.756 308,220.5C 317.167,210 326.333,199.5 335.5,189C 341.519,184.326 347.853,180.159 354.5,176.5 Z M 424.5,309.5 C 424.509,311.308 424.009,312.975 423,314.5C 416.815,325.543 410.648,336.543 404.5,347.5C 398.863,348.663 393.196,348.83 387.5,348C 389.041,346.421 390.208,344.587 391,342.5C 402.165,331.51 413.331,320.51 424.5,309.5 Z"/></g>
<g><path style="opacity:1" fill="#709145" d="M 514.5,138.5 C 509.96,139.797 505.293,141.13 500.5,142.5C 497.596,145.215 496.262,148.548 496.5,152.5C 503.099,153.663 506.432,157.663 506.5,164.5C 507.167,164.833 507.833,165.167 508.5,165.5C 512.402,160.087 513.402,160.753 511.5,167.5C 512.5,167.5 513.5,167.5 514.5,167.5C 514.534,171.63 515.201,175.63 516.5,179.5C 518.167,179.5 519.833,179.5 521.5,179.5C 522.845,172.786 524.512,166.119 526.5,159.5C 527.192,160.025 527.692,160.692 528,161.5C 528.49,160.207 528.657,158.873 528.5,157.5C 531.833,158.833 535.167,160.167 538.5,161.5C 538.738,164.069 540.071,165.735 542.5,166.5C 542.083,167.124 541.416,167.457 540.5,167.5C 538.823,166.813 537.156,166.146 535.5,165.5C 534.791,164.596 533.791,164.263 532.5,164.5C 531.955,160.828 531.622,161.162 531.5,165.5C 530.732,164.737 530.232,163.737 530,162.5C 528.092,163.818 527.258,165.652 527.5,168C 528.153,171.798 529.486,175.298 531.5,178.5C 532.338,181.723 533.672,182.056 535.5,179.5C 536.386,180.325 536.719,181.325 536.5,182.5C 537.5,182.5 538.5,182.5 539.5,182.5C 539.5,179.833 539.5,177.167 539.5,174.5C 542.436,173.594 545.436,172.928 548.5,172.5C 548.5,173.5 548.5,174.5 548.5,175.5C 546.833,175.5 545.167,175.5 543.5,175.5C 543.231,180.256 541.731,184.589 539,188.5C 537.763,186.896 536.597,185.229 535.5,183.5C 534.455,185.401 533.122,187.067 531.5,188.5C 530.749,187.624 530.249,186.624 530,185.5C 529.52,187.133 528.687,188.466 527.5,189.5C 526.735,188.34 525.735,187.34 524.5,186.5C 523.702,186.957 523.369,187.624 523.5,188.5C 522.898,186.32 521.565,184.654 519.5,183.5C 518.548,185.045 518.215,186.712 518.5,188.5C 516.598,187.489 514.598,187.322 512.5,188C 514.399,191.237 516.732,194.07 519.5,196.5C 518.448,196.351 517.448,196.517 516.5,197C 520.766,198.904 524.766,201.238 528.5,204C 524.514,204.499 520.514,204.666 516.5,204.5C 516.785,202.712 516.452,201.045 515.5,199.5C 514.827,201.689 513.827,203.689 512.5,205.5C 517.833,206.833 517.833,208.167 512.5,209.5C 513.328,210.415 514.328,211.081 515.5,211.5C 517.491,210.18 519.491,208.846 521.5,207.5C 523.5,206.167 525.5,206.167 527.5,207.5C 523.194,213.756 517.36,216.089 510,214.5C 509.517,215.448 509.351,216.448 509.5,217.5C 508.022,217.238 506.689,217.571 505.5,218.5C 506.333,218.833 507.167,219.167 508,219.5C 510.736,217.741 513.569,217.408 516.5,218.5C 515.147,219.524 514.48,220.857 514.5,222.5C 512.857,222.48 511.524,223.147 510.5,224.5C 509.692,226.423 509.192,228.423 509,230.5C 506.384,232.364 505.55,234.697 506.5,237.5C 508.816,235.53 510.649,233.196 512,230.5C 513.356,231.38 514.856,231.714 516.5,231.5C 516.335,228.15 516.502,224.817 517,221.5C 519.369,219.628 521.536,217.628 523.5,215.5C 524.672,215.919 525.672,216.585 526.5,217.5C 527.167,215.167 527.833,212.833 528.5,210.5C 529.524,209.147 530.857,208.48 532.5,208.5C 532.737,212.722 532.404,216.889 531.5,221C 529.049,223.398 526.382,225.564 523.5,227.5C 523.833,227.833 524.167,228.167 524.5,228.5C 526.51,226.829 528.843,226.162 531.5,226.5C 531.808,228.924 531.474,231.257 530.5,233.5C 529.833,231.833 529.167,230.167 528.5,228.5C 523.598,229.673 518.931,231.34 514.5,233.5C 514.67,234.822 514.337,235.989 513.5,237C 510.461,237.353 507.795,238.52 505.5,240.5C 504.353,240.182 503.519,239.516 503,238.5C 502.506,240.134 502.34,241.801 502.5,243.5C 501.659,239.838 500.992,236.005 500.5,232C 500.802,229.6 501.468,227.434 502.5,225.5C 502.343,226.873 502.51,228.207 503,229.5C 503.414,229.043 503.914,228.709 504.5,228.5C 505.119,225.968 506.119,223.635 507.5,221.5C 506.271,220.719 504.938,220.219 503.5,220C 502.903,218.938 502.57,217.772 502.5,216.5C 503.157,214.528 503.157,212.695 502.5,211C 503.313,209.686 504.313,208.519 505.5,207.5C 503.257,206.526 500.924,206.192 498.5,206.5C 497.551,204.263 496.884,201.929 496.5,199.5C 499.37,199.752 501.703,198.752 503.5,196.5C 503,196.167 502.5,195.833 502,195.5C 499.405,197.146 496.572,197.813 493.5,197.5C 493.5,195.167 493.5,192.833 493.5,190.5C 490.959,190.149 489.292,190.482 488.5,191.5C 473.033,201.538 469.033,198.038 476.5,181C 473.891,177.891 473.891,174.725 476.5,171.5C 470.158,163.791 472.158,160.457 482.5,161.5C 487.676,161.338 492.176,163.004 496,166.5C 496.439,161.929 494.272,159.429 489.5,159C 488.426,158.261 487.759,157.261 487.5,156C 488.939,153.295 489.939,150.462 490.5,147.5C 493.901,148.773 495.234,147.44 494.5,143.5C 495.492,143.672 496.158,143.338 496.5,142.5C 499.214,140.283 502.214,138.617 505.5,137.5C 507.167,137.5 508.833,137.5 510.5,137.5C 511.15,137.804 511.817,138.137 512.5,138.5C 513.649,136.075 514.316,136.075 514.5,138.5 Z M 497.5,161.5 C 497.56,160.957 497.893,160.624 498.5,160.5C 499.614,161.723 499.781,163.056 499,164.5C 498.768,163.263 498.268,162.263 497.5,161.5 Z"/></g>
<g><path style="opacity:1" fill="#d7b171" d="M 93.5,167.5 C 87.4469,178.946 81.4469,190.279 75.5,201.5C 74.71,200.391 74.21,199.058 74,197.5C 72.6107,201.272 71.6107,201.272 71,197.5C 70.51,198.793 70.3433,200.127 70.5,201.5C 68.901,201.768 67.5676,201.434 66.5,200.5C 72.2381,187.347 79.2381,175.013 87.5,163.5C 87.3691,164.376 87.7025,165.043 88.5,165.5C 89.8333,164.167 91.1667,162.833 92.5,161.5C 93.0566,163.646 93.39,165.646 93.5,167.5 Z"/></g>
<g><path style="opacity:1" fill="#9ab664" d="M 535.5,165.5 C 534.957,165.56 534.624,165.893 534.5,166.5C 535.624,167.914 536.624,169.414 537.5,171C 541.416,171.271 545.083,170.438 548.5,168.5C 549.442,168.608 550.275,168.941 551,169.5C 552.125,176.139 552.959,182.806 553.5,189.5C 548.334,191.497 546.667,189.997 548.5,185C 548.211,182.895 547.378,181.062 546,179.5C 544.275,184.012 543.441,188.679 543.5,193.5C 547.226,193.177 550.893,193.511 554.5,194.5C 551.373,194.98 548.54,195.98 546,197.5C 543.894,195.709 541.394,195.042 538.5,195.5C 538.116,197.929 537.449,200.263 536.5,202.5C 544.833,201.167 553.167,201.167 561.5,202.5C 562.096,208.171 560.762,209.171 557.5,205.5C 553.044,203.86 549.044,204.526 545.5,207.5C 548.157,208.259 550.823,208.926 553.5,209.5C 554.386,210.325 554.719,211.325 554.5,212.5C 553.167,212.5 551.833,212.5 550.5,212.5C 550.5,213.5 550.5,214.5 550.5,215.5C 548.076,215.192 545.743,215.526 543.5,216.5C 545.672,217.205 547.672,218.205 549.5,219.5C 550.5,218.5 551.5,217.5 552.5,216.5C 558.689,215.265 564.689,213.598 570.5,211.5C 570.5,210.5 570.5,209.5 570.5,208.5C 572.167,208.5 573.833,208.5 575.5,208.5C 575.285,206.821 575.952,205.821 577.5,205.5C 578.749,207.829 578.082,209.662 575.5,211C 570.388,214.048 565.055,216.548 559.5,218.5C 559.167,219.333 558.833,220.167 558.5,221C 560.073,225.366 561.073,229.866 561.5,234.5C 560.732,233.737 560.232,232.737 560,231.5C 558.93,235.989 557.763,240.322 556.5,244.5C 556.855,239.151 557.022,233.818 557,228.5C 552.989,230.243 550.489,228.91 549.5,224.5C 547.572,222.95 545.739,221.283 544,219.5C 543.788,221.78 542.955,223.78 541.5,225.5C 542.827,227.311 543.827,229.311 544.5,231.5C 546.007,233.69 548.007,235.024 550.5,235.5C 550.786,237.277 551.453,238.944 552.5,240.5C 551.833,241.833 551.167,243.167 550.5,244.5C 551.421,246.13 552.255,247.797 553,249.5C 553.417,248.244 554.25,247.577 555.5,247.5C 555.5,250.167 555.5,252.833 555.5,255.5C 552.924,255.532 550.591,254.865 548.5,253.5C 547.609,252.89 546.609,252.557 545.5,252.5C 544.02,250.588 542.02,249.421 539.5,249C 536.095,242.563 534.095,243.063 533.5,250.5C 530.705,245.159 528.538,239.493 527,233.5C 524.853,232.524 522.686,232.691 520.5,234C 515.7,240.228 509.7,243.394 502.5,243.5C 502.34,241.801 502.506,240.134 503,238.5C 503.519,239.516 504.353,240.182 505.5,240.5C 507.795,238.52 510.461,237.353 513.5,237C 514.337,235.989 514.67,234.822 514.5,233.5C 518.931,231.34 523.598,229.673 528.5,228.5C 529.167,230.167 529.833,231.833 530.5,233.5C 531.474,231.257 531.808,228.924 531.5,226.5C 528.843,226.162 526.51,226.829 524.5,228.5C 524.167,228.167 523.833,227.833 523.5,227.5C 526.382,225.564 529.049,223.398 531.5,221C 532.404,216.889 532.737,212.722 532.5,208.5C 530.857,208.48 529.524,209.147 528.5,210.5C 527.833,212.833 527.167,215.167 526.5,217.5C 525.672,216.585 524.672,215.919 523.5,215.5C 521.536,217.628 519.369,219.628 517,221.5C 516.502,224.817 516.335,228.15 516.5,231.5C 514.856,231.714 513.356,231.38 512,230.5C 510.649,233.196 508.816,235.53 506.5,237.5C 505.55,234.697 506.384,232.364 509,230.5C 509.192,228.423 509.692,226.423 510.5,224.5C 511.524,223.147 512.857,222.48 514.5,222.5C 514.48,220.857 515.147,219.524 516.5,218.5C 513.569,217.408 510.736,217.741 508,219.5C 507.167,219.167 506.333,218.833 505.5,218.5C 506.689,217.571 508.022,217.238 509.5,217.5C 509.351,216.448 509.517,215.448 510,214.5C 517.36,216.089 523.194,213.756 527.5,207.5C 525.5,206.167 523.5,206.167 521.5,207.5C 519.491,208.846 517.491,210.18 515.5,211.5C 514.328,211.081 513.328,210.415 512.5,209.5C 517.833,208.167 517.833,206.833 512.5,205.5C 513.827,203.689 514.827,201.689 515.5,199.5C 516.452,201.045 516.785,202.712 516.5,204.5C 520.514,204.666 524.514,204.499 528.5,204C 524.766,201.238 520.766,198.904 516.5,197C 517.448,196.517 518.448,196.351 519.5,196.5C 520.423,197.303 521.423,197.47 522.5,197C 520.939,194.273 519.605,191.439 518.5,188.5C 518.215,186.712 518.548,185.045 519.5,183.5C 521.565,184.654 522.898,186.32 523.5,188.5C 525.081,190.674 526.581,193.007 528,195.5C 528.49,193.455 528.323,191.455 527.5,189.5C 528.687,188.466 529.52,187.133 530,185.5C 530.249,186.624 530.749,187.624 531.5,188.5C 533.122,187.067 534.455,185.401 535.5,183.5C 536.597,185.229 537.763,186.896 539,188.5C 541.731,184.589 543.231,180.256 543.5,175.5C 545.167,175.5 546.833,175.5 548.5,175.5C 548.5,174.5 548.5,173.5 548.5,172.5C 545.436,172.928 542.436,173.594 539.5,174.5C 539.5,177.167 539.5,179.833 539.5,182.5C 538.5,182.5 537.5,182.5 536.5,182.5C 536.719,181.325 536.386,180.325 535.5,179.5C 533.672,182.056 532.338,181.723 531.5,178.5C 533.088,177.359 534.421,175.859 535.5,174C 534.061,171.167 532.728,168.334 531.5,165.5C 531.622,161.162 531.955,160.828 532.5,164.5C 533.791,164.263 534.791,164.596 535.5,165.5 Z M 527.5,189.5 C 528.323,191.455 528.49,193.455 528,195.5C 526.581,193.007 525.081,190.674 523.5,188.5C 523.369,187.624 523.702,186.957 524.5,186.5C 525.735,187.34 526.735,188.34 527.5,189.5 Z"/></g>
<g><path style="opacity:1" fill="#7da04d" d="M 553.5,189.5 C 563.141,192.324 571.141,197.657 577.5,205.5C 575.952,205.821 575.285,206.821 575.5,208.5C 573.833,208.5 572.167,208.5 570.5,208.5C 570.5,209.5 570.5,210.5 570.5,211.5C 564.689,213.598 558.689,215.265 552.5,216.5C 551.5,217.5 550.5,218.5 549.5,219.5C 547.672,218.205 545.672,217.205 543.5,216.5C 545.743,215.526 548.076,215.192 550.5,215.5C 550.5,214.5 550.5,213.5 550.5,212.5C 551.833,212.5 553.167,212.5 554.5,212.5C 554.719,211.325 554.386,210.325 553.5,209.5C 550.823,208.926 548.157,208.259 545.5,207.5C 549.044,204.526 553.044,203.86 557.5,205.5C 560.762,209.171 562.096,208.171 561.5,202.5C 553.167,201.167 544.833,201.167 536.5,202.5C 537.449,200.263 538.116,197.929 538.5,195.5C 541.394,195.042 543.894,195.709 546,197.5C 548.54,195.98 551.373,194.98 554.5,194.5C 550.893,193.511 547.226,193.177 543.5,193.5C 543.441,188.679 544.275,184.012 546,179.5C 547.378,181.062 548.211,182.895 548.5,185C 546.667,189.997 548.334,191.497 553.5,189.5 Z"/></g>
<g><path style="opacity:0.698" fill="#9bb668" d="M 502.5,225.5 C 502.159,222.484 500.993,219.818 499,217.5C 498.872,214.486 498.872,211.486 499,208.5C 493.667,204.5 491,199.167 491,192.5C 490.329,191.748 489.496,191.414 488.5,191.5C 489.292,190.482 490.959,190.149 493.5,190.5C 493.5,192.833 493.5,195.167 493.5,197.5C 496.572,197.813 499.405,197.146 502,195.5C 502.5,195.833 503,196.167 503.5,196.5C 501.703,198.752 499.37,199.752 496.5,199.5C 496.884,201.929 497.551,204.263 498.5,206.5C 500.924,206.192 503.257,206.526 505.5,207.5C 504.313,208.519 503.313,209.686 502.5,211C 503.157,212.695 503.157,214.528 502.5,216.5C 502.57,217.772 502.903,218.938 503.5,220C 504.938,220.219 506.271,220.719 507.5,221.5C 506.119,223.635 505.119,225.968 504.5,228.5C 503.914,228.709 503.414,229.043 503,229.5C 502.51,228.207 502.343,226.873 502.5,225.5 Z"/></g>
<g><path style="opacity:1" fill="#6a903f" d="M 534.5,219.5 C 536.888,220.219 538.388,221.885 539,224.5C 542.396,231.684 544.563,239.184 545.5,247C 544.833,247.167 544.167,247.333 543.5,247.5C 540.576,244.266 536.909,242.266 532.5,241.5C 534.067,239.104 534.9,236.437 535,233.5C 536.24,236.917 537.407,237.083 538.5,234C 535.217,229.778 533.884,224.944 534.5,219.5 Z"/></g>
<g><path style="opacity:1" fill="#729745" d="M 556.5,244.5 C 556.737,245.791 556.404,246.791 555.5,247.5C 554.25,247.577 553.417,248.244 553,249.5C 552.255,247.797 551.421,246.13 550.5,244.5C 551.167,243.167 551.833,241.833 552.5,240.5C 551.453,238.944 550.786,237.277 550.5,235.5C 548.007,235.024 546.007,233.69 544.5,231.5C 543.827,229.311 542.827,227.311 541.5,225.5C 542.955,223.78 543.788,221.78 544,219.5C 545.739,221.283 547.572,222.95 549.5,224.5C 550.489,228.91 552.989,230.243 557,228.5C 557.022,233.818 556.855,239.151 556.5,244.5 Z"/></g>
<g><path style="opacity:0.588" fill="#be9a6a" d="M 65.5,202.5 C 66.5,202.5 67.5,202.5 68.5,202.5C 64.308,212.576 60.808,222.909 58,233.5C 56.716,238.778 55.716,244.112 55,249.5C 54.0228,248.226 53.1894,248.226 52.5,249.5C 52.5,250.5 52.5,251.5 52.5,252.5C 52.5,252.833 52.5,253.167 52.5,253.5C 53.1524,254.449 53.4857,255.615 53.5,257C 53.3917,258.681 52.7251,259.848 51.5,260.5C 51.6567,259.127 51.49,257.793 51,256.5C 46.8887,275.94 45.0554,295.607 45.5,315.5C 45.5654,315.938 45.3988,316.272 45,316.5C 44.5831,315.244 43.7498,314.577 42.5,314.5C 41.1628,275.154 48.8295,237.821 65.5,202.5 Z"/></g>
<g><path style="opacity:0.997" fill="#bd8b49" d="M 75.5,201.5 C 72.3218,212.189 68.8218,222.856 65,233.5C 62.4892,247.628 60.3226,261.628 58.5,275.5C 58.6106,273.352 57.944,273.019 56.5,274.5C 55.5007,288.818 55.1674,303.151 55.5,317.5C 54.1667,317.5 52.8333,317.5 51.5,317.5C 50.2223,317.218 49.2223,316.551 48.5,315.5C 48.1197,297.107 49.1197,278.773 51.5,260.5C 52.7251,259.848 53.3917,258.681 53.5,257C 53.4857,255.615 53.1524,254.449 52.5,253.5C 52.5,253.167 52.5,252.833 52.5,252.5C 53.8333,251.5 53.8333,250.5 52.5,249.5C 53.1894,248.226 54.0228,248.226 55,249.5C 55.716,244.112 56.716,238.778 58,233.5C 60.808,222.909 64.308,212.576 68.5,202.5C 67.5,202.5 66.5,202.5 65.5,202.5C 65.3284,201.508 65.6618,200.842 66.5,200.5C 67.5676,201.434 68.901,201.768 70.5,201.5C 70.3433,200.127 70.51,198.793 71,197.5C 71.6107,201.272 72.6107,201.272 74,197.5C 74.21,199.058 74.71,200.391 75.5,201.5 Z"/></g>
<g><path style="opacity:0.486" fill="#bdb17f" d="M 561.5,234.5 C 563.114,241.807 564.448,249.141 565.5,256.5C 564.417,256.461 563.417,256.127 562.5,255.5C 560.032,257.966 559.032,260.966 559.5,264.5C 558.778,264.082 558.278,263.416 558,262.5C 557.667,259.5 557.333,256.5 557,253.5C 556.722,254.416 556.222,255.082 555.5,255.5C 555.5,252.833 555.5,250.167 555.5,247.5C 556.404,246.791 556.737,245.791 556.5,244.5C 557.763,240.322 558.93,235.989 560,231.5C 560.232,232.737 560.732,233.737 561.5,234.5 Z"/></g>
<g><path style="opacity:1" fill="#76894e" d="M 548.5,253.5 C 550.591,254.865 552.924,255.532 555.5,255.5C 555.605,259.548 555.272,263.548 554.5,267.5C 553.5,267.5 552.5,267.5 551.5,267.5C 550.685,262.801 549.685,258.134 548.5,253.5 Z"/></g>
<g><path style="opacity:1" fill="#a3a471" d="M 545.5,252.5 C 545.72,256.945 546.554,261.278 548,265.5C 549.039,266.71 550.206,267.71 551.5,268.5C 552.625,269.652 552.625,270.652 551.5,271.5C 550.833,271.5 550.167,271.5 549.5,271.5C 548.365,269.787 546.698,269.12 544.5,269.5C 541.245,264.398 537.745,259.398 534,254.5C 533.51,253.207 533.343,251.873 533.5,250.5C 534.095,243.063 536.095,242.563 539.5,249C 542.02,249.421 544.02,250.588 545.5,252.5 Z M 536.5,249.5 C 538.117,250.038 539.784,250.371 541.5,250.5C 542.329,253.469 542.495,256.469 542,259.5C 539.888,256.273 538.055,252.94 536.5,249.5 Z"/></g>
<g><path style="opacity:1" fill="#b98845" d="M 559.5,264.5 C 559.629,266.216 559.962,267.883 560.5,269.5C 560.5,270.167 560.5,270.833 560.5,271.5C 559.29,278.548 557.957,285.548 556.5,292.5C 558.167,292.5 559.833,292.5 561.5,292.5C 561.5,297.833 561.5,303.167 561.5,308.5C 560.883,308.611 560.383,308.944 560,309.5C 559.874,318.076 559.04,326.576 557.5,335C 557.581,336.924 557.914,338.757 558.5,340.5C 557.662,346.855 556.662,353.188 555.5,359.5C 554.167,360.5 554.167,361.5 555.5,362.5C 554.853,364.141 553.853,365.474 552.5,366.5C 550.859,369.142 549.525,372.142 548.5,375.5C 548.812,378.503 550.145,379.17 552.5,377.5C 552.5,378.167 552.5,378.833 552.5,379.5C 550.5,379.5 548.5,379.5 546.5,379.5C 546.403,384.56 545.07,389.226 542.5,393.5C 541.511,389.893 541.177,386.226 541.5,382.5C 543.652,376.357 545.152,370.024 546,363.5C 547.073,361.639 548.24,359.806 549.5,358C 549.164,356.97 548.497,356.47 547.5,356.5C 547.5,356.167 547.5,355.833 547.5,355.5C 550.746,346.568 552.079,337.235 551.5,327.5C 551.5,327.167 551.5,326.833 551.5,326.5C 552.309,324.708 552.809,322.708 553,320.5C 553.667,306.167 553.667,291.833 553,277.5C 552.495,275.482 551.995,273.482 551.5,271.5C 552.625,270.652 552.625,269.652 551.5,268.5C 551.5,268.167 551.5,267.833 551.5,267.5C 552.5,267.5 553.5,267.5 554.5,267.5C 555.272,263.548 555.605,259.548 555.5,255.5C 556.222,255.082 556.722,254.416 557,253.5C 557.333,256.5 557.667,259.5 558,262.5C 558.278,263.416 558.778,264.082 559.5,264.5 Z"/></g>
<g><path style="opacity:1" fill="#8dab58" d="M 569.5,296.5 C 568.232,294.953 566.565,293.953 564.5,293.5C 563.778,293.082 563.278,292.416 563,291.5C 562.617,292.056 562.117,292.389 561.5,292.5C 559.833,292.5 558.167,292.5 556.5,292.5C 557.957,285.548 559.29,278.548 560.5,271.5C 561.833,270.833 561.833,270.167 560.5,269.5C 559.962,267.883 559.629,266.216 559.5,264.5C 559.032,260.966 560.032,257.966 562.5,255.5C 563.417,256.127 564.417,256.461 565.5,256.5C 567.175,258.002 569.008,259.335 571,260.5C 575.862,256.657 581.362,254.824 587.5,255C 588.626,258.744 588.793,262.577 588,266.5C 587.535,267.931 586.701,269.097 585.5,270C 588.623,270.206 591.623,270.873 594.5,272C 596.096,275.048 598.263,277.548 601,279.5C 601.667,280.833 601.667,282.167 601,283.5C 595.045,287.474 588.545,288.807 581.5,287.5C 581.8,292.099 581.467,296.599 580.5,301C 579.167,301.667 577.833,301.667 576.5,301C 574.11,299.479 571.777,297.979 569.5,296.5 Z"/></g>
<g><path style="opacity:0.2" fill="#b58e5b" d="M 564.5,293.5 C 566.565,293.953 568.232,294.953 569.5,296.5C 567.625,323.676 562.458,350.343 554,376.5C 553.617,377.056 553.117,377.389 552.5,377.5C 550.145,379.17 548.812,378.503 548.5,375.5C 549.525,372.142 550.859,369.142 552.5,366.5C 553.853,365.474 554.853,364.141 555.5,362.5C 555.5,361.5 555.5,360.5 555.5,359.5C 558.715,352.257 560.215,344.59 560,336.5C 559.79,338.058 559.29,339.391 558.5,340.5C 557.914,338.757 557.581,336.924 557.5,335C 559.04,326.576 559.874,318.076 560,309.5C 560.383,308.944 560.883,308.611 561.5,308.5C 561.351,316.855 561.184,325.188 561,333.5C 563.007,320.243 564.174,306.91 564.5,293.5 Z"/></g>
<g><path style="opacity:1" fill="#c49b63" d="M 58.5,275.5 C 57.9198,296.305 59.2532,316.972 62.5,337.5C 58.7041,336.431 55.0374,335.098 51.5,333.5C 51.5,333.167 51.5,332.833 51.5,332.5C 51.5286,328.895 52.1953,325.395 53.5,322C 53.2414,320.213 52.5747,318.713 51.5,317.5C 52.8333,317.5 54.1667,317.5 55.5,317.5C 55.1674,303.151 55.5007,288.818 56.5,274.5C 57.944,273.019 58.6106,273.352 58.5,275.5 Z"/></g>
<g><path style="opacity:0.998" fill="#ba8845" d="M 53.5,349.5 C 53.5,349.167 53.5,348.833 53.5,348.5C 53.5,347.833 53.5,347.167 53.5,346.5C 53.5,343.833 53.5,341.167 53.5,338.5C 58.7269,338.284 59.5603,339.951 56,343.5C 55.6667,345.833 55.3333,348.167 55,350.5C 54.6174,349.944 54.1174,349.611 53.5,349.5 Z"/></g>
<g><path style="opacity:0.89" fill="#999e66" d="M 48.5,333.5 C 49.5,334.833 50.5,334.833 51.5,333.5C 55.0374,335.098 58.7041,336.431 62.5,337.5C 65.4673,340.25 68.634,342.916 72,345.5C 72.9305,348.362 74.5971,350.695 77,352.5C 78.6636,355.327 79.8303,358.327 80.5,361.5C 79.2387,364.82 77.572,365.154 75.5,362.5C 76.5735,361.749 76.7401,360.749 76,359.5C 73.436,353.016 69.436,347.682 64,343.5C 63.9964,347.648 64.8297,351.648 66.5,355.5C 65.1667,355.5 63.8333,355.5 62.5,355.5C 61.0813,354.549 59.4147,354.216 57.5,354.5C 56.4324,353.566 55.099,353.232 53.5,353.5C 53.5,352.167 53.5,350.833 53.5,349.5C 54.1174,349.611 54.6174,349.944 55,350.5C 55.3333,348.167 55.6667,345.833 56,343.5C 59.5603,339.951 58.7269,338.284 53.5,338.5C 53.5,341.167 53.5,343.833 53.5,346.5C 51.744,345.448 51.0773,343.781 51.5,341.5C 51.8222,340.142 51.8222,338.475 51.5,336.5C 50.5,336.5 49.5,336.5 48.5,336.5C 48.5,335.5 48.5,334.5 48.5,333.5 Z"/></g>
<g><path style="opacity:0.414" fill="#be9b6d" d="M 544.5,269.5 C 546.698,269.12 548.365,269.787 549.5,271.5C 551.225,289.773 551.892,308.106 551.5,326.5C 551.5,326.833 551.5,327.167 551.5,327.5C 549.753,336.645 548.42,345.979 547.5,355.5C 546.356,356.849 546.356,357.183 547.5,356.5C 548.497,356.47 549.164,356.97 549.5,358C 548.24,359.806 547.073,361.639 546,363.5C 545.152,370.024 543.652,376.357 541.5,382.5C 539.705,386.591 538.038,390.924 536.5,395.5C 534.821,395.715 533.821,395.048 533.5,393.5C 536.215,383.515 539.048,373.515 542,363.5C 543.325,354.849 544.658,346.182 546,337.5C 549.05,314.764 548.55,292.098 544.5,269.5 Z"/></g>
<g><path style="opacity:1" fill="#91ae5c" d="M 42.5,314.5 C 43.7498,314.577 44.5831,315.244 45,316.5C 45.3988,316.272 45.5654,315.938 45.5,315.5C 46.1515,316.091 46.8182,316.757 47.5,317.5C 48.2975,317.043 48.6309,316.376 48.5,315.5C 49.2223,316.551 50.2223,317.218 51.5,317.5C 52.5747,318.713 53.2414,320.213 53.5,322C 52.1953,325.395 51.5286,328.895 51.5,332.5C 50.7784,332.082 50.2784,331.416 50,330.5C 49.1667,331.333 48.3333,332.167 47.5,333C 47.7284,333.399 48.0618,333.565 48.5,333.5C 48.5,334.5 48.5,335.5 48.5,336.5C 49.2632,338.368 50.2632,340.035 51.5,341.5C 51.0773,343.781 51.744,345.448 53.5,346.5C 53.5,347.167 53.5,347.833 53.5,348.5C 52.9851,350.751 51.9851,352.751 50.5,354.5C 48.8212,354.285 47.8212,354.952 47.5,356.5C 46.7135,352.954 44.5469,350.621 41,349.5C 36.4212,352.473 31.4212,354.473 26,355.5C 23.836,355.334 22.6694,354.167 22.5,352C 23.5041,348.302 24.5041,344.635 25.5,341C 23.1667,340.667 20.8333,340.333 18.5,340C 15.4662,335.971 12.1328,332.304 8.5,329C 10.2105,326.628 12.5438,324.962 15.5,324C 18.4887,323.67 21.322,322.836 24,321.5C 25.4728,321.903 26.8061,322.57 28,323.5C 29.1377,318.762 29.971,313.929 30.5,309C 31.8333,308.333 33.1667,308.333 34.5,309C 36.5463,311.903 39.213,313.736 42.5,314.5 Z"/></g>
<g><path style="opacity:0.188" fill="#ba9c6b" d="M 50.5,354.5 C 51.1667,358.167 51.8333,361.833 52.5,365.5C 53.0906,366.151 53.7573,366.818 54.5,367.5C 54.2343,370.345 53.2343,372.678 51.5,374.5C 49.7857,368.596 48.4524,362.596 47.5,356.5C 47.8212,354.952 48.8212,354.285 50.5,354.5 Z"/></g>
<g><path style="opacity:1" fill="#709643" d="M 57.5,354.5 C 59.4147,354.216 61.0813,354.549 62.5,355.5C 63.1079,356.8 63.7745,358.133 64.5,359.5C 63.5389,363.457 62.5389,363.457 61.5,359.5C 59.9465,363.124 59.6132,366.791 60.5,370.5C 63.1937,372.645 65.8603,374.979 68.5,377.5C 69.3699,379.407 70.3699,381.24 71.5,383C 70.3699,384.76 69.3699,386.593 68.5,388.5C 67.4905,385.663 65.4905,384.33 62.5,384.5C 61.9647,380.645 59.9647,379.312 56.5,380.5C 56.1667,379.333 55.8333,378.167 55.5,377C 56.6411,369.764 57.3077,362.264 57.5,354.5 Z"/></g>
<g><path style="opacity:1" fill="#9fb667" d="M 53.5,353.5 C 55.099,353.232 56.4324,353.566 57.5,354.5C 57.3077,362.264 56.6411,369.764 55.5,377C 55.8333,378.167 56.1667,379.333 56.5,380.5C 59.9647,379.312 61.9647,380.645 62.5,384.5C 60.8997,383.748 59.3997,382.748 58,381.5C 58.0016,384.205 59.3349,386.205 62,387.5C 62.6836,389.479 62.1836,391.146 60.5,392.5C 54.2771,393.68 48.2771,395.347 42.5,397.5C 42.5,398.833 42.5,400.167 42.5,401.5C 40.8333,401.5 39.1667,401.5 37.5,401.5C 37.4802,403.143 38.1468,404.476 39.5,405.5C 41.4899,406.498 43.4899,407.498 45.5,408.5C 47.1515,411.778 46.4848,412.778 43.5,411.5C 40.1112,409.113 37.4445,406.113 35.5,402.5C 35.8757,400.617 36.8757,399.117 38.5,398C 44.0748,395.629 49.5748,393.129 55,390.5C 54.3699,385.054 53.2032,379.721 51.5,374.5C 53.2343,372.678 54.2343,370.345 54.5,367.5C 53.7573,366.818 53.0906,366.151 52.5,365.5C 54.8419,361.884 55.1753,357.884 53.5,353.5 Z"/></g>
<g><path style="opacity:1" fill="#94b261" d="M 140.5,411.5 C 139.022,411.238 137.689,411.571 136.5,412.5C 132.149,417.017 126.816,418.684 120.5,417.5C 120.813,414.753 120.48,412.086 119.5,409.5C 115.962,410.163 112.795,411.497 110,413.5C 110.399,410.549 110.899,407.549 111.5,404.5C 113.942,404.354 114.609,405.187 113.5,407C 118.795,407.234 119.462,405.734 115.5,402.5C 113.018,401.103 110.352,400.269 107.5,400C 109.032,399.3 110.032,398.134 110.5,396.5C 110.93,393.964 110.93,391.297 110.5,388.5C 107.804,389.74 105.47,391.407 103.5,393.5C 96.2894,391.626 90.6227,393.792 86.5,400C 88.5,400.667 90.5,400.667 92.5,400C 94.3211,398.257 96.3211,396.757 98.5,395.5C 100.691,396.743 103.024,397.576 105.5,398C 102.447,398.179 99.4465,398.679 96.5,399.5C 98.4011,400.935 98.7345,402.602 97.5,404.5C 96.2159,403.415 94.7159,402.748 93,402.5C 90.0853,403.266 87.252,404.266 84.5,405.5C 89.8876,407.628 95.2209,409.628 100.5,411.5C 100.657,412.873 100.49,414.207 100,415.5C 99.6174,414.944 99.1174,414.611 98.5,414.5C 94.9598,413.697 91.7931,412.03 89,409.5C 89.7182,413.604 91.5515,417.27 94.5,420.5C 90.2395,423.471 87.0729,422.471 85,417.5C 83.7505,421.072 82.2505,420.905 80.5,417C 83.2434,413.842 82.91,411.009 79.5,408.5C 78.8333,411.5 78.1667,414.5 77.5,417.5C 76.8076,416.975 76.3076,416.308 76,415.5C 75.6924,416.308 75.1924,416.975 74.5,417.5C 71.7024,416.047 68.7024,415.047 65.5,414.5C 72.5199,414.464 76.8532,411.13 78.5,404.5C 73.1862,403.824 68.5195,405.157 64.5,408.5C 61.5212,409.328 58.5212,409.995 55.5,410.5C 55.6896,413.803 56.6896,416.803 58.5,419.5C 54.7225,418.723 51.3892,417.056 48.5,414.5C 49.9187,413.549 51.5853,413.216 53.5,413.5C 53.5,411.5 53.5,409.5 53.5,407.5C 55.8568,407.663 58.1902,407.497 60.5,407C 53.6466,406.606 46.9799,405.439 40.5,403.5C 43.4465,402.679 46.4465,402.179 49.5,402C 47.5789,401.64 45.9122,400.806 44.5,399.5C 49.1713,397.886 52.8379,399.219 55.5,403.5C 57,403.833 58.5,404.167 60,404.5C 63.2193,403.845 66.386,403.012 69.5,402C 66.7021,400.402 63.7021,399.235 60.5,398.5C 61.5,397.5 62.5,396.5 63.5,395.5C 66.4433,397.107 69.11,399.107 71.5,401.5C 74.4281,402.484 77.4281,402.817 80.5,402.5C 80.3537,400.058 81.187,399.391 83,400.5C 83.9147,399.672 84.5814,398.672 85,397.5C 85.2147,393.715 85.3814,390.048 85.5,386.5C 86.8681,388.637 87.8681,390.97 88.5,393.5C 90.1937,391.806 91.8604,390.14 93.5,388.5C 94.1347,385.039 95.1347,381.705 96.5,378.5C 97.8333,378.5 99.1667,378.5 100.5,378.5C 102.494,376.184 103.494,373.518 103.5,370.5C 99.7495,373.381 95.5829,375.714 91,377.5C 89.9302,377.472 89.0968,377.139 88.5,376.5C 94.2701,371.11 100.603,366.444 107.5,362.5C 108.814,363.313 109.981,364.313 111,365.5C 111.79,371.552 111.624,377.552 110.5,383.5C 112.556,386.445 114.223,389.612 115.5,393C 114.833,394.333 114.167,395.667 113.5,397C 116.11,399.707 118.61,402.54 121,405.5C 122.289,408.351 122.789,411.351 122.5,414.5C 128.218,413.969 133.551,412.303 138.5,409.5C 139.713,409.747 140.38,410.414 140.5,411.5 Z"/></g>
<g><path style="opacity:1" fill="#89aa56" d="M 62.5,355.5 C 63.8333,355.5 65.1667,355.5 66.5,355.5C 69.5802,357.654 72.5802,359.988 75.5,362.5C 77.572,365.154 79.2387,364.82 80.5,361.5C 83.1306,365.695 84.6306,370.362 85,375.5C 85.7083,376.381 86.5416,377.047 87.5,377.5C 88.3351,378.943 89.6684,379.943 91.5,380.5C 88.8515,382.658 85.8515,383.992 82.5,384.5C 81.6533,388.799 80.9867,393.133 80.5,397.5C 75.8984,396.379 71.2318,395.379 66.5,394.5C 72.2684,393.496 72.6017,392.162 67.5,390.5C 65.41,388.753 63.7433,386.753 62.5,384.5C 65.4905,384.33 67.4905,385.663 68.5,388.5C 69.3699,386.593 70.3699,384.76 71.5,383C 70.3699,381.24 69.3699,379.407 68.5,377.5C 65.8603,374.979 63.1937,372.645 60.5,370.5C 59.6132,366.791 59.9465,363.124 61.5,359.5C 62.5389,363.457 63.5389,363.457 64.5,359.5C 63.7745,358.133 63.1079,356.8 62.5,355.5 Z"/></g>
<g><path style="opacity:1" fill="#709644" d="M 48.5,414.5 C 46.4348,414.047 44.7682,413.047 43.5,411.5C 46.4848,412.778 47.1515,411.778 45.5,408.5C 43.4899,407.498 41.4899,406.498 39.5,405.5C 38.1468,404.476 37.4802,403.143 37.5,401.5C 39.1667,401.5 40.8333,401.5 42.5,401.5C 42.5,400.167 42.5,398.833 42.5,397.5C 48.2771,395.347 54.2771,393.68 60.5,392.5C 62.1836,391.146 62.6836,389.479 62,387.5C 59.3349,386.205 58.0016,384.205 58,381.5C 59.3997,382.748 60.8997,383.748 62.5,384.5C 63.7433,386.753 65.41,388.753 67.5,390.5C 72.6017,392.162 72.2684,393.496 66.5,394.5C 71.2318,395.379 75.8984,396.379 80.5,397.5C 80.9867,393.133 81.6533,388.799 82.5,384.5C 85.8515,383.992 88.8515,382.658 91.5,380.5C 89.6684,379.943 88.3351,378.943 87.5,377.5C 87.5,376.833 87.8333,376.5 88.5,376.5C 89.0968,377.139 89.9302,377.472 91,377.5C 95.5829,375.714 99.7495,373.381 103.5,370.5C 103.494,373.518 102.494,376.184 100.5,378.5C 99.1667,378.5 97.8333,378.5 96.5,378.5C 95.1347,381.705 94.1347,385.039 93.5,388.5C 91.8604,390.14 90.1937,391.806 88.5,393.5C 87.8681,390.97 86.8681,388.637 85.5,386.5C 85.3814,390.048 85.2147,393.715 85,397.5C 84.5814,398.672 83.9147,399.672 83,400.5C 81.187,399.391 80.3537,400.058 80.5,402.5C 77.4281,402.817 74.4281,402.484 71.5,401.5C 69.11,399.107 66.4433,397.107 63.5,395.5C 62.5,396.5 61.5,397.5 60.5,398.5C 63.7021,399.235 66.7021,400.402 69.5,402C 66.386,403.012 63.2193,403.845 60,404.5C 58.5,404.167 57,403.833 55.5,403.5C 52.8379,399.219 49.1713,397.886 44.5,399.5C 45.9122,400.806 47.5789,401.64 49.5,402C 46.4465,402.179 43.4465,402.679 40.5,403.5C 46.9799,405.439 53.6466,406.606 60.5,407C 58.1902,407.497 55.8568,407.663 53.5,407.5C 53.5,409.5 53.5,411.5 53.5,413.5C 51.5853,413.216 49.9187,413.549 48.5,414.5 Z"/></g>
<g><path style="opacity:1" fill="#d6af72" d="M 552.5,379.5 C 552.162,381.854 551.662,384.187 551,386.5C 545.57,398.693 539.57,410.693 533,422.5C 527.637,431.25 521.804,439.583 515.5,447.5C 515.631,446.761 515.464,446.094 515,445.5C 513.294,446.308 512.461,447.641 512.5,449.5C 509.843,449.162 507.51,449.829 505.5,451.5C 503.675,450.429 502.508,451.096 502,453.5C 501.536,452.906 501.369,452.239 501.5,451.5C 502.793,449.704 504.293,448.037 506,446.5C 510.968,438.187 515.968,429.854 521,421.5C 524.519,411.738 528.685,402.405 533.5,393.5C 533.821,395.048 534.821,395.715 536.5,395.5C 538.038,390.924 539.705,386.591 541.5,382.5C 541.177,386.226 541.511,389.893 542.5,393.5C 545.07,389.226 546.403,384.56 546.5,379.5C 548.5,379.5 550.5,379.5 552.5,379.5 Z"/></g>
<g><path style="opacity:0.345" fill="#a0ba6a" d="M 81.5,429.5 C 81.2786,430.735 80.6119,431.735 79.5,432.5C 81.4437,436.331 82.777,440.331 83.5,444.5C 81.6895,441.233 79.1895,438.567 76,436.5C 73.6101,437.278 71.4434,438.445 69.5,440C 67.4213,440.808 65.4213,440.641 63.5,439.5C 62.5404,433.227 62.2071,426.893 62.5,420.5C 62.3893,419.883 62.056,419.383 61.5,419C 63.4473,418.009 65.4473,417.675 67.5,418C 65.0442,420.367 64.2108,423.2 65,426.5C 66.3561,427.38 67.8561,427.714 69.5,427.5C 69.6639,424.252 70.6639,421.252 72.5,418.5C 72.8333,419.5 73.1667,420.5 73.5,421.5C 71.9743,425.364 71.3077,429.364 71.5,433.5C 69.549,433.773 68.049,433.107 67,431.5C 66.5065,433.134 66.3398,434.801 66.5,436.5C 73.9603,436.145 77.2937,432.145 76.5,424.5C 77.316,426.287 78.316,427.954 79.5,429.5C 80.2842,426.951 81.4508,424.618 83,422.5C 83.2393,424.959 82.7393,427.293 81.5,429.5 Z"/></g>
<g><path style="opacity:0.831" fill="#759649" d="M 140.5,411.5 C 141.289,411.783 141.956,412.283 142.5,413C 141.029,416.853 139.696,420.853 138.5,425C 138.741,426.984 139.408,428.817 140.5,430.5C 137.522,434.068 138.022,437.068 142,439.5C 142.667,440.833 142.667,442.167 142,443.5C 137.199,444.192 132.365,444.858 127.5,445.5C 124.632,443.399 121.632,441.899 118.5,441C 119.692,442.912 120.692,444.912 121.5,447C 123.433,447.251 125.266,447.751 127,448.5C 127.535,451.827 127.035,454.994 125.5,458C 126.38,459.356 126.714,460.856 126.5,462.5C 124.87,460.974 124.037,458.974 124,456.5C 123.34,458.324 122.173,459.657 120.5,460.5C 121.388,456.784 122.388,453.118 123.5,449.5C 119.754,449.189 116.42,450.189 113.5,452.5C 111.021,449.65 110.021,446.316 110.5,442.5C 106.991,442.542 103.658,441.876 100.5,440.5C 101.406,437.564 102.072,434.564 102.5,431.5C 103.675,431.719 104.675,431.386 105.5,430.5C 103.535,427.058 101.201,426.724 98.5,429.5C 96.8653,428.954 95.1986,428.62 93.5,428.5C 92.5777,433.151 91.5777,437.818 90.5,442.5C 87.9445,444.56 86.4445,447.226 86,450.5C 85.6667,450.833 85.3333,451.167 85,451.5C 83.9152,450.264 83.0819,448.931 82.5,447.5C 83.404,446.791 83.7373,445.791 83.5,444.5C 84.8221,444.67 85.9887,444.337 87,443.5C 88.715,437.284 86.8817,432.618 81.5,429.5C 82.7393,427.293 83.2393,424.959 83,422.5C 81.4508,424.618 80.2842,426.951 79.5,429.5C 78.316,427.954 77.316,426.287 76.5,424.5C 77.2937,432.145 73.9603,436.145 66.5,436.5C 66.3398,434.801 66.5065,433.134 67,431.5C 68.049,433.107 69.549,433.773 71.5,433.5C 71.3077,429.364 71.9743,425.364 73.5,421.5C 73.1667,420.5 72.8333,419.5 72.5,418.5C 70.6639,421.252 69.6639,424.252 69.5,427.5C 67.8561,427.714 66.3561,427.38 65,426.5C 64.2108,423.2 65.0442,420.367 67.5,418C 65.4473,417.675 63.4473,418.009 61.5,419C 62.056,419.383 62.3893,419.883 62.5,420.5C 61.1667,420.167 59.8333,419.833 58.5,419.5C 56.6896,416.803 55.6896,413.803 55.5,410.5C 58.5212,409.995 61.5212,409.328 64.5,408.5C 68.5195,405.157 73.1862,403.824 78.5,404.5C 76.8532,411.13 72.5199,414.464 65.5,414.5C 68.7024,415.047 71.7024,416.047 74.5,417.5C 75.1924,416.975 75.6924,416.308 76,415.5C 76.3076,416.308 76.8076,416.975 77.5,417.5C 78.1667,414.5 78.8333,411.5 79.5,408.5C 82.91,411.009 83.2434,413.842 80.5,417C 82.2505,420.905 83.7505,421.072 85,417.5C 87.0729,422.471 90.2395,423.471 94.5,420.5C 96.8568,420.663 99.1902,420.497 101.5,420C 99.84,418.512 98.84,416.679 98.5,414.5C 99.1174,414.611 99.6174,414.944 100,415.5C 100.49,414.207 100.657,412.873 100.5,411.5C 95.2209,409.628 89.8876,407.628 84.5,405.5C 87.252,404.266 90.0853,403.266 93,402.5C 94.7159,402.748 96.2159,403.415 97.5,404.5C 98.7345,402.602 98.4011,400.935 96.5,399.5C 99.4465,398.679 102.447,398.179 105.5,398C 103.024,397.576 100.691,396.743 98.5,395.5C 96.3211,396.757 94.3211,398.257 92.5,400C 90.5,400.667 88.5,400.667 86.5,400C 90.6227,393.792 96.2894,391.626 103.5,393.5C 105.47,391.407 107.804,389.74 110.5,388.5C 110.93,391.297 110.93,393.964 110.5,396.5C 110.032,398.134 109.032,399.3 107.5,400C 110.352,400.269 113.018,401.103 115.5,402.5C 119.462,405.734 118.795,407.234 113.5,407C 114.609,405.187 113.942,404.354 111.5,404.5C 110.899,407.549 110.399,410.549 110,413.5C 112.795,411.497 115.962,410.163 119.5,409.5C 120.48,412.086 120.813,414.753 120.5,417.5C 126.816,418.684 132.149,417.017 136.5,412.5C 137.689,411.571 139.022,411.238 140.5,411.5 Z M 98.5,414.5 C 98.84,416.679 99.84,418.512 101.5,420C 99.1902,420.497 96.8568,420.663 94.5,420.5C 91.5515,417.27 89.7182,413.604 89,409.5C 91.7931,412.03 94.9598,413.697 98.5,414.5 Z"/></g>
<g><path style="opacity:1" fill="#607f3e" d="M 120.5,460.5 C 120.815,462.226 120.981,463.893 121,465.5C 118.92,462.716 118.253,463.049 119,466.5C 122.439,469.272 125.605,472.439 128.5,476C 125.773,476.818 123.106,476.652 120.5,475.5C 118.415,471.746 115.415,469.079 111.5,467.5C 110.287,467.747 109.62,468.414 109.5,469.5C 108.167,469.5 106.833,469.5 105.5,469.5C 103.076,469.808 100.743,469.474 98.5,468.5C 99.1667,467.833 99.8333,467.167 100.5,466.5C 98.2344,465.593 96.5678,466.426 95.5,469C 95.6667,469.5 95.8333,470 96,470.5C 98.0521,471.723 100.219,472.723 102.5,473.5C 104.209,476.543 106.543,478.876 109.5,480.5C 111.259,483.185 112.259,486.185 112.5,489.5C 110.952,494.869 109.286,500.203 107.5,505.5C 102.797,504.797 99.1302,502.464 96.5,498.5C 93.9839,492.919 90.3172,492.085 85.5,496C 77.7631,497.99 70.0964,497.823 62.5,495.5C 62.2907,494.914 61.9574,494.414 61.5,494C 63.328,485.677 66.9947,478.344 72.5,472C 67.9392,470.615 63.6059,468.782 59.5,466.5C 55.392,459.829 52.0587,452.829 49.5,445.5C 55.2733,444.64 60.94,443.307 66.5,441.5C 69.3132,442.686 72.1465,442.686 75,441.5C 78.8325,441.832 81.3325,443.832 82.5,447.5C 83.0819,448.931 83.9152,450.264 85,451.5C 85.3333,451.167 85.6667,450.833 86,450.5C 86.4445,447.226 87.9445,444.56 90.5,442.5C 91.5777,437.818 92.5777,433.151 93.5,428.5C 95.1986,428.62 96.8653,428.954 98.5,429.5C 101.201,426.724 103.535,427.058 105.5,430.5C 104.675,431.386 103.675,431.719 102.5,431.5C 102.072,434.564 101.406,437.564 100.5,440.5C 103.658,441.876 106.991,442.542 110.5,442.5C 110.021,446.316 111.021,449.65 113.5,452.5C 116.42,450.189 119.754,449.189 123.5,449.5C 122.388,453.118 121.388,456.784 120.5,460.5 Z M 105.5,469.5 C 106.833,469.5 108.167,469.5 109.5,469.5C 113.377,469.231 115.544,470.898 116,474.5C 112.073,473.497 108.573,471.83 105.5,469.5 Z"/></g>
<g><path style="opacity:0.998" fill="#f3d8a0" d="M 515.5,447.5 C 500.308,467.929 482.642,485.929 462.5,501.5C 463.184,498.972 464.518,496.805 466.5,495C 466.167,494.833 465.833,494.667 465.5,494.5C 464.167,495.833 462.833,495.833 461.5,494.5C 458.015,497.383 454.348,499.716 450.5,501.5C 469.443,486.891 486.443,470.224 501.5,451.5C 501.369,452.239 501.536,452.906 502,453.5C 502.508,451.096 503.675,450.429 505.5,451.5C 507.51,449.829 509.843,449.162 512.5,449.5C 512.461,447.641 513.294,446.308 515,445.5C 515.464,446.094 515.631,446.761 515.5,447.5 Z"/></g>
<g><path style="opacity:0.031" fill="#6a8348" d="M 112.5,480.5 C 114.337,480.639 114.67,481.306 113.5,482.5C 112.702,482.043 112.369,481.376 112.5,480.5 Z"/></g>
<g><path style="opacity:1" fill="#8eac5c" d="M 126.5,462.5 C 126.5,464.167 126.5,465.833 126.5,467.5C 127.552,467.351 128.552,467.517 129.5,468C 133.378,473.545 138.211,478.045 144,481.5C 144.786,475.461 147.286,470.294 151.5,466C 154.856,465.643 157.689,466.809 160,469.5C 162.365,473.809 164.199,478.309 165.5,483C 168.119,484.696 170.786,484.863 173.5,483.5C 174.482,486.962 174.815,490.629 174.5,494.5C 170.541,496.472 166.874,499.138 163.5,502.5C 165.718,503.057 168.051,503.057 170.5,502.5C 168.955,503.64 167.288,504.64 165.5,505.5C 162.087,504.941 159.254,503.274 157,500.5C 156.586,500.957 156.086,501.291 155.5,501.5C 153.573,497.696 152.573,498.196 152.5,503C 152.629,504.981 153.296,506.647 154.5,508C 153.103,511.414 151.77,514.914 150.5,518.5C 152.039,520.408 153.706,522.075 155.5,523.5C 154.5,523.5 153.5,523.5 152.5,523.5C 152.5,524.833 152.5,526.167 152.5,527.5C 149.406,525.066 146.072,523.066 142.5,521.5C 139.897,518.782 136.563,517.282 132.5,517C 134.645,516.257 134.811,515.424 133,514.5C 129.906,515.566 126.74,516.232 123.5,516.5C 123.917,513.657 124.917,510.99 126.5,508.5C 130.171,506.164 132.171,502.831 132.5,498.5C 130.712,498.785 129.045,498.452 127.5,497.5C 126.368,495.511 125.035,493.844 123.5,492.5C 122.098,488.043 120.264,483.71 118,479.5C 115.566,476.369 113.066,476.036 110.5,478.5C 109.662,478.842 109.328,479.508 109.5,480.5C 106.543,478.876 104.209,476.543 102.5,473.5C 100.219,472.723 98.0521,471.723 96,470.5C 95.8333,470 95.6667,469.5 95.5,469C 96.5678,466.426 98.2344,465.593 100.5,466.5C 99.8333,467.167 99.1667,467.833 98.5,468.5C 100.743,469.474 103.076,469.808 105.5,469.5C 108.573,471.83 112.073,473.497 116,474.5C 115.544,470.898 113.377,469.231 109.5,469.5C 109.62,468.414 110.287,467.747 111.5,467.5C 115.415,469.079 118.415,471.746 120.5,475.5C 123.106,476.652 125.773,476.818 128.5,476C 125.605,472.439 122.439,469.272 119,466.5C 118.253,463.049 118.92,462.716 121,465.5C 120.981,463.893 120.815,462.226 120.5,460.5C 122.173,459.657 123.34,458.324 124,456.5C 124.037,458.974 124.87,460.974 126.5,462.5 Z M 105.5,469.5 C 106.833,469.5 108.167,469.5 109.5,469.5C 113.377,469.231 115.544,470.898 116,474.5C 112.073,473.497 108.573,471.83 105.5,469.5 Z"/></g>
<g><path style="opacity:0.035" fill="#709054" d="M 110.5,478.5 C 111.833,478.5 112.5,479.167 112.5,480.5C 112.5,479.167 111.833,478.5 110.5,478.5 Z"/></g>
<g><path style="opacity:0.999" fill="#719847" d="M 94.5,503.5 C 96.797,505.623 98.1303,508.29 98.5,511.5C 90.9767,513.286 84.31,511.619 78.5,506.5C 78.9767,505.522 79.6433,504.689 80.5,504C 85.1548,503.501 89.8215,503.334 94.5,503.5 Z"/></g>
<g><path style="opacity:1" fill="#556f38" d="M 219.5,507.5 C 216.6,504.903 213.266,502.903 209.5,501.5C 201.912,502.959 194.246,503.959 186.5,504.5C 182.689,505.738 182.689,506.404 186.5,506.5C 186.5,510.167 186.5,513.833 186.5,517.5C 185.833,520.167 185.167,522.833 184.5,525.5C 182.596,525.262 181.262,524.262 180.5,522.5C 181.097,522.265 181.43,521.765 181.5,521C 178.814,518.746 176.481,516.246 174.5,513.5C 171.453,511.756 168.453,510.089 165.5,508.5C 165.5,507.5 165.5,506.5 165.5,505.5C 167.288,504.64 168.955,503.64 170.5,502.5C 172.426,500.707 174.759,499.707 177.5,499.5C 177.727,497.067 176.727,495.401 174.5,494.5C 174.815,490.629 174.482,486.962 173.5,483.5C 173.192,481.076 173.526,478.743 174.5,476.5C 175.293,476.069 176.127,475.735 177,475.5C 181.218,476.542 185.384,477.709 189.5,479C 190.217,481.715 191.717,483.882 194,485.5C 198.069,482.437 202.402,479.77 207,477.5C 208.221,478.272 209.221,479.272 210,480.5C 210.169,486.859 210.669,493.193 211.5,499.5C 213.968,500.803 216.301,502.303 218.5,504C 219.337,505.011 219.67,506.178 219.5,507.5 Z"/></g>
<g><path style="opacity:1" fill="#658440" d="M 290.5,525.5 C 282.938,528.11 275.272,530.444 267.5,532.5C 267.5,531.167 267.5,529.833 267.5,528.5C 270.364,528.936 272.697,528.103 274.5,526C 271.223,522.583 268.223,522.75 265.5,526.5C 260.769,525.708 256.103,524.708 251.5,523.5C 252.108,522.2 252.775,520.867 253.5,519.5C 253.167,518.833 252.833,518.167 252.5,517.5C 249.715,520.352 246.382,522.352 242.5,523.5C 237.524,521.446 237.524,519.946 242.5,519C 240.167,518.333 237.833,518.333 235.5,519C 234.1,520.438 232.433,521.271 230.5,521.5C 230.858,515.941 232.525,510.775 235.5,506C 235.167,505.167 234.833,504.333 234.5,503.5C 233.719,504.729 233.219,506.062 233,507.5C 232.11,503.618 232.61,499.952 234.5,496.5C 235.192,497.025 235.692,497.692 236,498.5C 236.399,498.272 236.565,497.938 236.5,497.5C 237.725,498.937 238.725,500.604 239.5,502.5C 240.5,502.833 241.5,503.167 242.5,503.5C 247.592,501.565 252.758,500.898 258,501.5C 260.996,501.914 263.496,503.248 265.5,505.5C 266.5,504.833 267.5,504.167 268.5,503.5C 269.559,498.034 271.059,492.701 273,487.5C 274.726,486.424 276.559,486.257 278.5,487C 281.751,490.419 284.418,494.253 286.5,498.5C 288.228,500.226 290.228,501.559 292.5,502.5C 293.429,503.689 293.762,505.022 293.5,506.5C 297.197,507.008 300.864,507.674 304.5,508.5C 304.657,509.873 304.49,511.207 304,512.5C 300.901,516.733 297.735,520.9 294.5,525C 293.207,525.49 291.873,525.657 290.5,525.5 Z"/></g>
<g><path style="opacity:1" fill="#eec47f" d="M 462.5,501.5 C 449.406,512.559 435.073,521.892 419.5,529.5C 417.383,526.279 418.383,523.779 422.5,522C 421.216,521.316 420.049,521.483 419,522.5C 418.536,521.906 418.369,521.239 418.5,520.5C 429.529,514.657 440.196,508.324 450.5,501.5C 454.348,499.716 458.015,497.383 461.5,494.5C 462.833,495.833 464.167,495.833 465.5,494.5C 465.833,494.667 466.167,494.833 466.5,495C 464.518,496.805 463.184,498.972 462.5,501.5 Z"/></g>
<g><path style="opacity:0.043" fill="#7a944c" d="M 165.5,505.5 C 165.5,506.5 165.5,507.5 165.5,508.5C 168.453,510.089 171.453,511.756 174.5,513.5C 176.481,516.246 178.814,518.746 181.5,521C 181.43,521.765 181.097,522.265 180.5,522.5C 178.036,521.433 175.703,520.1 173.5,518.5C 174.067,517.58 173.401,517.246 171.5,517.5C 171.657,518.873 171.49,520.207 171,521.5C 170.503,519.19 170.337,516.857 170.5,514.5C 168.234,514.141 166.401,514.808 165,516.5C 164.517,515.552 164.351,514.552 164.5,513.5C 161.938,510.405 160.605,510.905 160.5,515C 160.307,517.008 160.974,518.508 162.5,519.5C 163.797,521.693 163.797,524.027 162.5,526.5C 160.227,525.625 159.227,523.958 159.5,521.5C 157.801,521.527 156.467,522.194 155.5,523.5C 153.706,522.075 152.039,520.408 150.5,518.5C 151.77,514.914 153.103,511.414 154.5,508C 153.296,506.647 152.629,504.981 152.5,503C 152.573,498.196 153.573,497.696 155.5,501.5C 156.086,501.291 156.586,500.957 157,500.5C 159.254,503.274 162.087,504.941 165.5,505.5 Z M 164.5,513.5 C 162.72,514.99 162.054,516.99 162.5,519.5C 160.974,518.508 160.307,517.008 160.5,515C 160.605,510.905 161.938,510.405 164.5,513.5 Z"/></g>
<g><path style="opacity:1" fill="#587738" d="M 164.5,513.5 C 164.351,514.552 164.517,515.552 165,516.5C 166.401,514.808 168.234,514.141 170.5,514.5C 170.337,516.857 170.503,519.19 171,521.5C 171.49,520.207 171.657,518.873 171.5,517.5C 173.401,517.246 174.067,517.58 173.5,518.5C 172.539,520.265 172.205,522.265 172.5,524.5C 172.672,526.492 172.005,528.158 170.5,529.5C 167.834,530.039 165.667,531.372 164,533.5C 163.586,533.043 163.086,532.709 162.5,532.5C 161.833,533.5 161.167,534.5 160.5,535.5C 159.914,535.291 159.414,534.957 159,534.5C 158.392,536.154 157.892,537.821 157.5,539.5C 154.334,536.225 152.668,532.225 152.5,527.5C 152.5,526.167 152.5,524.833 152.5,523.5C 153.5,523.5 154.5,523.5 155.5,523.5C 156.467,522.194 157.801,521.527 159.5,521.5C 159.227,523.958 160.227,525.625 162.5,526.5C 163.797,524.027 163.797,521.693 162.5,519.5C 162.054,516.99 162.72,514.99 164.5,513.5 Z"/></g>
<g><path style="opacity:1" fill="#6b8c43" d="M 229.5,490.5 C 231.594,495.144 231.261,499.811 228.5,504.5C 229.393,507.084 229.726,509.751 229.5,512.5C 228.5,512.5 227.5,512.5 226.5,512.5C 226.762,511.022 226.429,509.689 225.5,508.5C 225.167,509.5 224.833,510.5 224.5,511.5C 231.791,522.889 228.791,527.723 215.5,526C 217.104,527.237 218.771,528.403 220.5,529.5C 219.675,530.386 218.675,530.719 217.5,530.5C 217.5,531.833 217.5,533.167 217.5,534.5C 214.482,534.335 211.482,534.502 208.5,535C 209.7,536.031 211.034,536.865 212.5,537.5C 214.135,536.954 215.801,536.62 217.5,536.5C 217.438,542.76 218.938,543.094 222,537.5C 222.219,538.938 222.719,540.271 223.5,541.5C 225.288,533.575 226.121,533.575 226,541.5C 223.005,543.926 219.505,544.926 215.5,544.5C 215.5,543.5 215.5,542.5 215.5,541.5C 210.972,542.424 206.472,543.424 202,544.5C 201.833,543.667 201.667,542.833 201.5,542C 202.476,539.882 203.31,537.715 204,535.5C 207.575,532.929 210.408,529.762 212.5,526C 209.14,524.561 205.806,523.061 202.5,521.5C 201.032,517.231 199.032,513.231 196.5,509.5C 195.749,510.376 195.249,511.376 195,512.5C 194.692,511.692 194.192,511.025 193.5,510.5C 192.571,511.689 192.238,513.022 192.5,514.5C 191.127,514.343 189.793,514.51 188.5,515C 190.1,516.608 191.433,518.441 192.5,520.5C 198.573,521.449 200.573,524.783 198.5,530.5C 195.563,527.857 192.896,528.191 190.5,531.5C 192.289,532.623 192.622,533.956 191.5,535.5C 189.833,534.667 188.167,533.833 186.5,533C 187.944,531.293 189.277,529.46 190.5,527.5C 189.291,523.93 187.958,520.597 186.5,517.5C 186.5,513.833 186.5,510.167 186.5,506.5C 182.689,506.404 182.689,505.738 186.5,504.5C 194.246,503.959 201.912,502.959 209.5,501.5C 213.266,502.903 216.6,504.903 219.5,507.5C 221.933,502.633 224.433,497.633 227,492.5C 227.708,491.619 228.542,490.953 229.5,490.5 Z"/></g>
<g><path style="opacity:1" fill="#516c35" d="M 251.5,523.5 C 256.103,524.708 260.769,525.708 265.5,526.5C 268.223,522.75 271.223,522.583 274.5,526C 272.697,528.103 270.364,528.936 267.5,528.5C 267.5,529.833 267.5,531.167 267.5,532.5C 275.272,530.444 282.938,528.11 290.5,525.5C 289.016,526.473 288.516,527.807 289,529.5C 290.948,530.109 292.782,530.776 294.5,531.5C 292.208,531.756 290.041,531.423 288,530.5C 287.308,531.437 287.475,532.103 288.5,532.5C 288.5,533.167 288.5,533.833 288.5,534.5C 287.713,536.104 286.38,536.771 284.5,536.5C 284.762,535.022 284.429,533.689 283.5,532.5C 281.929,533.309 280.262,533.643 278.5,533.5C 278.643,535.262 278.309,536.929 277.5,538.5C 278.325,539.386 279.325,539.719 280.5,539.5C 280.5,540.833 280.5,542.167 280.5,543.5C 272.991,543.863 265.991,542.197 259.5,538.5C 260.796,535.669 260.463,533.002 258.5,530.5C 257.646,531.522 256.646,532.355 255.5,533C 256.308,533.308 256.975,533.808 257.5,534.5C 256.609,535.59 255.609,535.59 254.5,534.5C 253.614,535.325 253.281,536.325 253.5,537.5C 256.988,537.899 257.154,538.566 254,539.5C 251.5,538.5 249,537.5 246.5,536.5C 244.933,534.104 244.1,531.437 244,528.5C 243.768,529.737 243.268,530.737 242.5,531.5C 242.5,530.167 242.5,528.833 242.5,527.5C 243.492,527.672 244.158,527.338 244.5,526.5C 247.229,526.245 249.562,525.245 251.5,523.5 Z"/></g>
<g><path style="opacity:1" fill="#749847" d="M 172.5,552.5 C 171.596,551.791 171.263,550.791 171.5,549.5C 167.951,549.561 164.618,548.727 161.5,547C 160.974,544.037 159.641,541.537 157.5,539.5C 159.435,538.85 161.435,538.517 163.5,538.5C 163.281,537.325 163.614,536.325 164.5,535.5C 168.156,534.007 171.489,532.007 174.5,529.5C 176.167,528.167 177.833,528.167 179.5,529.5C 178.833,530.167 178.167,530.833 177.5,531.5C 181.07,533.607 184.736,535.441 188.5,537C 186.956,537.29 185.623,537.956 184.5,539C 198.782,540.928 198.949,543.428 185,546.5C 181.814,546.256 178.647,545.923 175.5,545.5C 175.662,547.527 175.495,549.527 175,551.5C 174.329,552.252 173.496,552.586 172.5,552.5 Z"/></g>
<g><path style="opacity:1" fill="#d2a869" d="M 418.5,520.5 C 418.369,521.239 418.536,521.906 419,522.5C 420.049,521.483 421.216,521.316 422.5,522C 418.383,523.779 417.383,526.279 419.5,529.5C 409.744,535.711 399.41,540.878 388.5,545C 384.109,547.098 379.442,548.264 374.5,548.5C 372.218,547.61 369.885,547.444 367.5,548C 368.993,549.156 368.826,549.99 367,550.5C 365.699,550.361 364.866,549.695 364.5,548.5C 365.338,548.158 365.672,547.492 365.5,546.5C 374.569,544.468 383.569,542.134 392.5,539.5C 392.799,536.358 394.466,534.191 397.5,533C 393.215,533.038 389.215,534.204 385.5,536.5C 384.817,536.137 384.15,535.804 383.5,535.5C 395.431,531.375 407.098,526.375 418.5,520.5 Z"/></g>
<g><path style="opacity:1" fill="#88a856" d="M 229.5,490.5 C 232.833,491.833 235.167,494.167 236.5,497.5C 236.565,497.938 236.399,498.272 236,498.5C 235.692,497.692 235.192,497.025 234.5,496.5C 232.61,499.952 232.11,503.618 233,507.5C 233.219,506.062 233.719,504.729 234.5,503.5C 234.833,504.333 235.167,505.167 235.5,506C 232.525,510.775 230.858,515.941 230.5,521.5C 232.433,521.271 234.1,520.438 235.5,519C 237.833,518.333 240.167,518.333 242.5,519C 237.524,519.946 237.524,521.446 242.5,523.5C 246.382,522.352 249.715,520.352 252.5,517.5C 252.833,518.167 253.167,518.833 253.5,519.5C 252.775,520.867 252.108,522.2 251.5,523.5C 249.562,525.245 247.229,526.245 244.5,526.5C 240.818,526.665 237.152,526.499 233.5,526C 234.938,525.781 236.271,525.281 237.5,524.5C 235.5,523.167 233.5,523.167 231.5,524.5C 228.914,527.614 227.914,531.281 228.5,535.5C 229.5,535.5 230.5,535.5 231.5,535.5C 231.532,529.42 232.698,529.087 235,534.5C 235.497,536.81 235.663,539.143 235.5,541.5C 234.833,542.833 234.167,544.167 233.5,545.5C 232.032,546.779 231.365,548.446 231.5,550.5C 231.179,552.048 230.179,552.715 228.5,552.5C 225.19,551.292 221.857,549.959 218.5,548.5C 217.833,548.667 217.167,548.833 216.5,549C 217.304,550.771 218.471,552.271 220,553.5C 219.932,555.342 220.099,557.009 220.5,558.5C 221.388,561.054 221.721,563.721 221.5,566.5C 222.592,571.123 220.925,572.956 216.5,572C 214.413,571.208 212.579,570.041 211,568.5C 207.96,572.718 204.293,573.718 200,571.5C 181.699,582.586 176.865,578.253 185.5,558.5C 184.91,557.201 183.91,556.368 182.5,556C 179.833,555.667 177.167,555.333 174.5,555C 173.619,554.292 172.953,553.458 172.5,552.5C 173.496,552.586 174.329,552.252 175,551.5C 175.495,549.527 175.662,547.527 175.5,545.5C 178.647,545.923 181.814,546.256 185,546.5C 198.949,543.428 198.782,540.928 184.5,539C 185.623,537.956 186.956,537.29 188.5,537C 184.736,535.441 181.07,533.607 177.5,531.5C 178.167,530.833 178.833,530.167 179.5,529.5C 177.833,528.167 176.167,528.167 174.5,529.5C 171.489,532.007 168.156,534.007 164.5,535.5C 163.614,536.325 163.281,537.325 163.5,538.5C 161.435,538.517 159.435,538.85 157.5,539.5C 157.892,537.821 158.392,536.154 159,534.5C 159.414,534.957 159.914,535.291 160.5,535.5C 161.167,534.5 161.833,533.5 162.5,532.5C 163.086,532.709 163.586,533.043 164,533.5C 165.667,531.372 167.834,530.039 170.5,529.5C 172.005,528.158 172.672,526.492 172.5,524.5C 175.542,526.407 178.876,527.74 182.5,528.5C 183.919,527.995 184.585,526.995 184.5,525.5C 185.167,522.833 185.833,520.167 186.5,517.5C 187.958,520.597 189.291,523.93 190.5,527.5C 189.277,529.46 187.944,531.293 186.5,533C 188.167,533.833 189.833,534.667 191.5,535.5C 192.622,533.956 192.289,532.623 190.5,531.5C 192.896,528.191 195.563,527.857 198.5,530.5C 200.573,524.783 198.573,521.449 192.5,520.5C 191.433,518.441 190.1,516.608 188.5,515C 189.793,514.51 191.127,514.343 192.5,514.5C 192.238,513.022 192.571,511.689 193.5,510.5C 194.192,511.025 194.692,511.692 195,512.5C 195.249,511.376 195.749,510.376 196.5,509.5C 199.032,513.231 201.032,517.231 202.5,521.5C 205.806,523.061 209.14,524.561 212.5,526C 210.408,529.762 207.575,532.929 204,535.5C 203.31,537.715 202.476,539.882 201.5,542C 201.667,542.833 201.833,543.667 202,544.5C 206.472,543.424 210.972,542.424 215.5,541.5C 215.5,542.5 215.5,543.5 215.5,544.5C 219.505,544.926 223.005,543.926 226,541.5C 226.121,533.575 225.288,533.575 223.5,541.5C 222.719,540.271 222.219,538.938 222,537.5C 218.938,543.094 217.438,542.76 217.5,536.5C 215.801,536.62 214.135,536.954 212.5,537.5C 211.034,536.865 209.7,536.031 208.5,535C 211.482,534.502 214.482,534.335 217.5,534.5C 217.5,533.167 217.5,531.833 217.5,530.5C 218.675,530.719 219.675,530.386 220.5,529.5C 218.771,528.403 217.104,527.237 215.5,526C 228.791,527.723 231.791,522.889 224.5,511.5C 224.833,510.5 225.167,509.5 225.5,508.5C 226.429,509.689 226.762,511.022 226.5,512.5C 227.5,512.5 228.5,512.5 229.5,512.5C 229.726,509.751 229.393,507.084 228.5,504.5C 231.261,499.811 231.594,495.144 229.5,490.5 Z"/></g>
<g><path style="opacity:0.998" fill="#688044" d="M 244.5,526.5 C 244.158,527.338 243.492,527.672 242.5,527.5C 237.195,528.808 237.195,530.142 242.5,531.5C 243.268,530.737 243.768,529.737 244,528.5C 244.1,531.437 244.933,534.104 246.5,536.5C 249,537.5 251.5,538.5 254,539.5C 257.154,538.566 256.988,537.899 253.5,537.5C 253.281,536.325 253.614,535.325 254.5,534.5C 255.609,535.59 256.609,535.59 257.5,534.5C 256.975,533.808 256.308,533.308 255.5,533C 256.646,532.355 257.646,531.522 258.5,530.5C 260.463,533.002 260.796,535.669 259.5,538.5C 265.991,542.197 272.991,543.863 280.5,543.5C 282.834,545.176 283.834,547.509 283.5,550.5C 281.5,550.5 279.5,550.5 277.5,550.5C 277.351,551.552 277.517,552.552 278,553.5C 280.381,552.565 282.881,552.232 285.5,552.5C 285.276,548.821 284.942,545.154 284.5,541.5C 286.942,541.119 287.609,541.786 286.5,543.5C 289.177,544.844 291.177,546.844 292.5,549.5C 291.187,551.518 291.853,552.685 294.5,553C 292.432,553.687 290.432,553.52 288.5,552.5C 287.407,554.77 285.907,555.103 284,553.5C 283.5,553.833 283,554.167 282.5,554.5C 284.833,555.167 287.167,555.833 289.5,556.5C 288.311,557.429 286.978,557.762 285.5,557.5C 285.48,559.143 286.147,560.476 287.5,561.5C 284.273,564.997 280.273,566.997 275.5,567.5C 276.602,568.176 277.602,568.842 278.5,569.5C 277.608,571.442 278.275,573.108 280.5,574.5C 280.167,574.833 279.833,575.167 279.5,575.5C 277.367,573.909 275.701,571.909 274.5,569.5C 273.57,572.362 271.903,574.695 269.5,576.5C 270.167,577.167 270.833,577.833 271.5,578.5C 271,578.833 270.5,579.167 270,579.5C 268.342,577.532 266.675,575.532 265,573.5C 263.703,577.427 261.87,581.094 259.5,584.5C 258.447,583.562 257.78,582.395 257.5,581C 259.165,578.335 260.831,575.668 262.5,573C 262.741,571.016 263.408,569.183 264.5,567.5C 263.833,566.833 263.167,566.167 262.5,565.5C 263.976,564.12 264.976,562.453 265.5,560.5C 262.596,559.319 260.096,559.986 258,562.5C 256.183,565.903 255.017,569.57 254.5,573.5C 253.922,570.631 252.922,567.965 251.5,565.5C 252.685,564.147 254.019,562.98 255.5,562C 247.226,559.447 239.392,560.28 232,564.5C 229.929,563.333 228.429,563.999 227.5,566.5C 225.712,563.891 224.045,563.891 222.5,566.5C 222.167,566.5 221.833,566.5 221.5,566.5C 221.721,563.721 221.388,561.054 220.5,558.5C 221.833,558.167 223.167,557.833 224.5,557.5C 223.498,559.011 222.831,560.678 222.5,562.5C 226.609,560.981 230.943,560.147 235.5,560C 233.744,559.798 232.078,559.298 230.5,558.5C 233.318,557.12 235.985,557.287 238.5,559C 243.5,559.667 248.5,559.667 253.5,559C 256.044,557.437 256.044,555.937 253.5,554.5C 254.025,553.808 254.692,553.308 255.5,553C 253.729,552.465 253.396,551.631 254.5,550.5C 256.812,551.774 258.145,553.774 258.5,556.5C 260.743,557.474 263.076,557.808 265.5,557.5C 265.327,554.821 264.327,552.487 262.5,550.5C 262.833,549.833 263.167,549.167 263.5,548.5C 265.201,549.802 266.368,551.469 267,553.5C 268.413,551.348 269.246,549.014 269.5,546.5C 265.123,546.054 260.956,546.721 257,548.5C 255.635,547.544 254.135,546.878 252.5,546.5C 245.405,547.757 238.405,549.09 231.5,550.5C 231.365,548.446 232.032,546.779 233.5,545.5C 237.519,547.291 241.186,546.791 244.5,544C 241.479,543.151 238.479,542.317 235.5,541.5C 235.663,539.143 235.497,536.81 235,534.5C 232.698,529.087 231.532,529.42 231.5,535.5C 230.5,535.5 229.5,535.5 228.5,535.5C 227.914,531.281 228.914,527.614 231.5,524.5C 233.5,523.167 235.5,523.167 237.5,524.5C 236.271,525.281 234.938,525.781 233.5,526C 237.152,526.499 240.818,526.665 244.5,526.5 Z M 234.5,530.5 C 236.34,532.168 238.34,533.668 240.5,535C 237.273,535.287 235.273,533.787 234.5,530.5 Z"/></g>
<g><path style="opacity:1" fill="#526d37" d="M 112.5,489.5 C 115.714,490.554 118.548,492.22 121,494.5C 121.708,493.619 122.542,492.953 123.5,492.5C 125.035,493.844 126.368,495.511 127.5,497.5C 129.045,498.452 130.712,498.785 132.5,498.5C 132.171,502.831 130.171,506.164 126.5,508.5C 124.917,510.99 123.917,513.657 123.5,516.5C 126.74,516.232 129.906,515.566 133,514.5C 134.811,515.424 134.645,516.257 132.5,517C 136.563,517.282 139.897,518.782 142.5,521.5C 141.947,522.823 142.447,524.156 144,525.5C 145.081,532.054 144.414,538.388 142,544.5C 140.274,545.576 138.441,545.743 136.5,545C 135.12,543.075 133.62,541.241 132,539.5C 131.044,540.894 129.711,541.561 128,541.5C 125.667,540.833 123.333,540.167 121,539.5C 116.392,541.435 111.559,541.935 106.5,541C 105.446,539.612 105.28,538.112 106,536.5C 108.532,531.436 111.032,526.436 113.5,521.5C 111.146,521.162 108.813,520.662 106.5,520C 104.671,516.339 102.004,513.505 98.5,511.5C 98.1303,508.29 96.797,505.623 94.5,503.5C 93.1834,501.124 93.8501,499.457 96.5,498.5C 99.1302,502.464 102.797,504.797 107.5,505.5C 109.286,500.203 110.952,494.869 112.5,489.5 Z"/></g>
<g><path style="opacity:1" fill="#b88a48" d="M 365.5,546.5 C 354.779,547.142 344.446,546.475 334.5,544.5C 341.562,544.255 348.562,543.422 355.5,542C 365.092,540.519 374.426,538.352 383.5,535.5C 384.15,535.804 384.817,536.137 385.5,536.5C 389.215,534.204 393.215,533.038 397.5,533C 394.466,534.191 392.799,536.358 392.5,539.5C 383.569,542.134 374.569,544.468 365.5,546.5 Z"/></g>
<g><path style="opacity:1" fill="#b08a48" d="M 235.5,541.5 C 238.479,542.317 241.479,543.151 244.5,544C 241.186,546.791 237.519,547.291 233.5,545.5C 234.167,544.167 234.833,542.833 235.5,541.5 Z"/></g>
<g><path style="opacity:1" fill="#7f8f53" d="M 334.5,544.5 C 344.446,546.475 354.779,547.142 365.5,546.5C 365.672,547.492 365.338,548.158 364.5,548.5C 363.833,548.5 363.167,548.5 362.5,548.5C 361.391,548.557 360.391,548.89 359.5,549.5C 357.359,548.837 355.025,548.503 352.5,548.5C 339.926,549.959 327.259,550.959 314.5,551.5C 313.975,552.192 313.308,552.692 312.5,553C 314.175,553.985 315.842,554.819 317.5,555.5C 315.5,555.5 313.5,555.5 311.5,555.5C 309.071,555.116 306.737,554.449 304.5,553.5C 305.249,550.061 306.916,547.061 309.5,544.5C 307.448,542.613 307.114,540.613 308.5,538.5C 312.103,540.763 315.436,543.43 318.5,546.5C 321.777,545.746 325.11,545.246 328.5,545C 330.035,541.994 330.535,538.827 330,535.5C 327.599,536.967 325.099,537.801 322.5,538C 321.134,535.618 321.467,533.452 323.5,531.5C 319.541,530.673 315.541,530.173 311.5,530C 308.895,528.069 308.895,526.236 311.5,524.5C 312.308,524.808 312.975,525.308 313.5,526C 317.167,526.333 320.833,526.667 324.5,527C 326.032,527.7 327.032,528.866 327.5,530.5C 335.459,531.586 337.459,535.753 333.5,543C 333.57,543.765 333.903,544.265 334.5,544.5 Z"/></g>
<g><path style="opacity:1" fill="#4f6934" d="M 224.5,557.5 C 225.833,555.833 227.167,554.167 228.5,552.5C 230.179,552.715 231.179,552.048 231.5,550.5C 238.405,549.09 245.405,547.757 252.5,546.5C 254.135,546.878 255.635,547.544 257,548.5C 260.956,546.721 265.123,546.054 269.5,546.5C 269.246,549.014 268.413,551.348 267,553.5C 266.368,551.469 265.201,549.802 263.5,548.5C 263.167,549.167 262.833,549.833 262.5,550.5C 264.327,552.487 265.327,554.821 265.5,557.5C 263.076,557.808 260.743,557.474 258.5,556.5C 258.145,553.774 256.812,551.774 254.5,550.5C 253.396,551.631 253.729,552.465 255.5,553C 254.692,553.308 254.025,553.808 253.5,554.5C 256.044,555.937 256.044,557.437 253.5,559C 248.5,559.667 243.5,559.667 238.5,559C 235.985,557.287 233.318,557.12 230.5,558.5C 232.078,559.298 233.744,559.798 235.5,560C 230.943,560.147 226.609,560.981 222.5,562.5C 222.831,560.678 223.498,559.011 224.5,557.5 Z"/></g>
<g><path style="opacity:1" fill="#688643" d="M 294.5,531.5 C 297.477,532.071 300.31,533.071 303,534.5C 304.356,533.62 305.856,533.286 307.5,533.5C 307.629,535.216 307.962,536.883 308.5,538.5C 307.114,540.613 307.448,542.613 309.5,544.5C 306.916,547.061 305.249,550.061 304.5,553.5C 306.737,554.449 309.071,555.116 311.5,555.5C 311.821,557.048 312.821,557.715 314.5,557.5C 314.81,559.144 315.81,560.144 317.5,560.5C 317.756,562.937 318.423,565.271 319.5,567.5C 319.167,568.167 318.833,568.833 318.5,569.5C 314.521,570.505 310.521,570.505 306.5,569.5C 306.649,570.552 306.483,571.552 306,572.5C 303.012,575.323 300.178,578.323 297.5,581.5C 295.468,582.819 293.468,582.819 291.5,581.5C 291.672,580.508 291.338,579.842 290.5,579.5C 290.672,578.508 290.338,577.842 289.5,577.5C 288.572,574.253 288.238,571.087 288.5,568C 285.644,567.912 282.977,568.745 280.5,570.5C 279.584,570.457 278.917,570.124 278.5,569.5C 277.602,568.842 276.602,568.176 275.5,567.5C 280.273,566.997 284.273,564.997 287.5,561.5C 286.147,560.476 285.48,559.143 285.5,557.5C 286.978,557.762 288.311,557.429 289.5,556.5C 287.167,555.833 284.833,555.167 282.5,554.5C 283,554.167 283.5,553.833 284,553.5C 285.907,555.103 287.407,554.77 288.5,552.5C 290.432,553.52 292.432,553.687 294.5,553C 291.853,552.685 291.187,551.518 292.5,549.5C 291.177,546.844 289.177,544.844 286.5,543.5C 287.609,541.786 286.942,541.119 284.5,541.5C 284.942,545.154 285.276,548.821 285.5,552.5C 282.881,552.232 280.381,552.565 278,553.5C 277.517,552.552 277.351,551.552 277.5,550.5C 279.5,550.5 281.5,550.5 283.5,550.5C 283.834,547.509 282.834,545.176 280.5,543.5C 280.5,542.167 280.5,540.833 280.5,539.5C 279.325,539.719 278.325,539.386 277.5,538.5C 278.309,536.929 278.643,535.262 278.5,533.5C 280.262,533.643 281.929,533.309 283.5,532.5C 284.429,533.689 284.762,535.022 284.5,536.5C 286.38,536.771 287.713,536.104 288.5,534.5C 289.458,534.953 290.292,535.619 291,536.5C 292.067,535.809 293.234,535.309 294.5,535C 292.189,534.764 290.189,533.931 288.5,532.5C 287.475,532.103 287.308,531.437 288,530.5C 290.041,531.423 292.208,531.756 294.5,531.5 Z M 288.5,532.5 C 290.189,533.931 292.189,534.764 294.5,535C 293.234,535.309 292.067,535.809 291,536.5C 290.292,535.619 289.458,534.953 288.5,534.5C 288.5,533.833 288.5,533.167 288.5,532.5 Z"/></g>
<g><path style="opacity:0.796" fill="#a47e4c" d="M 374.5,548.5 C 367.476,551.598 360.143,554.098 352.5,556C 340.842,557.666 329.176,559.166 317.5,560.5C 315.81,560.144 314.81,559.144 314.5,557.5C 326.012,557.415 337.345,555.915 348.5,553C 338.209,553.92 327.876,554.753 317.5,555.5C 315.842,554.819 314.175,553.985 312.5,553C 313.308,552.692 313.975,552.192 314.5,551.5C 327.259,550.959 339.926,549.959 352.5,548.5C 355.025,548.503 357.359,548.837 359.5,549.5C 360.779,550.715 361.779,550.382 362.5,548.5C 363.167,548.5 363.833,548.5 364.5,548.5C 364.866,549.695 365.699,550.361 367,550.5C 368.826,549.99 368.993,549.156 367.5,548C 369.885,547.444 372.218,547.61 374.5,548.5 Z M 362.5,548.5 C 361.779,550.382 360.779,550.715 359.5,549.5C 360.391,548.89 361.391,548.557 362.5,548.5 Z"/></g>
<g><path style="opacity:1" fill="#4f6a35" d="M 278.5,569.5 C 278.917,570.124 279.584,570.457 280.5,570.5C 282.977,568.745 285.644,567.912 288.5,568C 288.238,571.087 288.572,574.253 289.5,577.5C 289.328,578.492 289.662,579.158 290.5,579.5C 291.338,579.842 291.672,580.508 291.5,581.5C 288.552,584.74 284.885,585.407 280.5,583.5C 277.008,586.049 273.008,587.549 268.5,588C 264.045,591.99 259.045,595.157 253.5,597.5C 252.201,596.91 251.368,595.91 251,594.5C 250.88,587.827 250.88,581.161 251,574.5C 249.27,572.398 247.437,572.565 245.5,575C 243.167,575.667 240.833,575.667 238.5,575C 232.69,572.93 227.357,570.097 222.5,566.5C 224.045,563.891 225.712,563.891 227.5,566.5C 228.429,563.999 229.929,563.333 232,564.5C 239.392,560.28 247.226,559.447 255.5,562C 254.019,562.98 252.685,564.147 251.5,565.5C 252.922,567.965 253.922,570.631 254.5,573.5C 255.017,569.57 256.183,565.903 258,562.5C 260.096,559.986 262.596,559.319 265.5,560.5C 264.976,562.453 263.976,564.12 262.5,565.5C 263.167,566.167 263.833,566.833 264.5,567.5C 263.408,569.183 262.741,571.016 262.5,573C 260.831,575.668 259.165,578.335 257.5,581C 257.78,582.395 258.447,583.562 259.5,584.5C 261.87,581.094 263.703,577.427 265,573.5C 266.675,575.532 268.342,577.532 270,579.5C 270.5,579.167 271,578.833 271.5,578.5C 270.833,577.833 270.167,577.167 269.5,576.5C 271.903,574.695 273.57,572.362 274.5,569.5C 275.701,571.909 277.367,573.909 279.5,575.5C 279.833,575.167 280.167,574.833 280.5,574.5C 278.275,573.108 277.608,571.442 278.5,569.5 Z"/></g>
</svg>
